<?xml version="1.0" encoding="UTF-8" standalone="no"?>
<!-- Created with Inkscape (http://www.inkscape.org/) -->

<svg
   xmlns:dc="http://purl.org/dc/elements/1.1/"
   xmlns:cc="http://creativecommons.org/ns#"
   xmlns:rdf="http://www.w3.org/1999/02/22-rdf-syntax-ns#"
   xmlns:svg="http://www.w3.org/2000/svg"
   xmlns="http://www.w3.org/2000/svg"
   version="1.1"
   width="85"
   height="85"
   id="svg2">
  <metadata
     id="metadata8">
    <rdf:RDF>
      <cc:Work
         rdf:about="">
        <dc:format>image/svg+xml</dc:format>
        <dc:type
           rdf:resource="http://purl.org/dc/dcmitype/StillImage" />
        <dc:title></dc:title>
      </cc:Work>
    </rdf:RDF>
  </metadata>
  <defs
     id="defs6" />
  <g
     id="g3814">
    <g
       transform="matrix(-0.59993194,0.2834298,0.42716478,0.90417379,51.367749,-10.615174)"
       id="g3870">
      <g
         transform="matrix(0.75497054,0.26422079,-0.30220603,0.8580746,31.24129,-8.7553053)"
         id="g3825">
        <g
           transform="translate(99.032964,24.614848)"
           id="g3785"
           style="stroke:#86661a;stroke-linecap:round;stroke-opacity:1">
          <g
             id="g3811">
            <path
               d="m -70.972975,44.972973 a 14.405405,16.162163 0 1 1 -4.38e-4,-0.126027"
               transform="matrix(2.8024182,0,0,2.4978073,182.73213,-94.448684)"
               id="path2991"
               style="fill:#fa9e0e;fill-opacity:1;stroke:#86661a;stroke-width:0.94491792;stroke-linecap:round;stroke-linejoin:miter;stroke-miterlimit:4;stroke-opacity:1;stroke-dasharray:none" />
          </g>
          <path
             d="m -79.756757,49.540541 c 0,0 5.788655,-29.763379 20.378379,-45.6756762 11.627179,-12.6811942 31.27027,-14.4054058 31.27027,-14.4054058"
             id="path3761"
             style="fill:none;stroke:#86661a;stroke-width:2.5;stroke-linecap:round;stroke-linejoin:miter;stroke-miterlimit:4;stroke-opacity:1;stroke-dasharray:none" />
          <path
             d="m -84.499996,-11.418919 c 0,0 29.763375,5.788655 45.675673,20.3783785 12.681194,11.6271795 14.405406,31.2702705 14.405406,31.2702705"
             id="path3761-5"
             style="fill:none;stroke:#86661a;stroke-width:2.5;stroke-linecap:round;stroke-linejoin:miter;stroke-miterlimit:4;stroke-opacity:1;stroke-dasharray:none" />
          <path
             d="m -42.162162,55.162162 c 0,0 -10.302839,-37.134079 2.108108,-46.3783782 6.58349,-4.9037152 23.891892,5.9729732 23.891892,5.9729732"
             id="path3781"
             style="fill:none;stroke:#86661a;stroke-width:2.5;stroke-linecap:round;stroke-linejoin:miter;stroke-miterlimit:4;stroke-opacity:1;stroke-dasharray:none" />
          <path
             d="m -93.459459,7.3783784 c 0,0 22.475356,-4.7579845 27.405405,-13.7027027 2.272596,-4.1232317 -1.405405,-14.0540537 -1.405405,-14.0540537"
             id="path3783"
             style="fill:none;stroke:#86661a;stroke-width:2.5;stroke-linecap:round;stroke-linejoin:miter;stroke-miterlimit:4;stroke-opacity:1;stroke-dasharray:none" />
        </g>
        <path
           d="m 33.19688,70.961518 c 3.900378,7.602149 10.970659,7.634416 13.708164,7.432138"
           id="path2988"
           style="fill:none;stroke:#000000;stroke-width:2;stroke-linecap:round;stroke-linejoin:miter;stroke-miterlimit:4;stroke-opacity:1;stroke-dasharray:none" />
        <path
           d="m 33.031721,79.05429 c 8.199837,0.123635 12.819227,-7.570626 12.882372,-8.423089"
           id="path2990"
           style="fill:none;stroke:#000000;stroke-width:2;stroke-linecap:round;stroke-linejoin:miter;stroke-miterlimit:4;stroke-opacity:1;stroke-dasharray:none" />
      </g>
      <g
         transform="matrix(0.64022174,0,0,0.70722073,16.308284,15.173062)"
         id="g3846">
        <path
           d="m 29.41203,96.561071 c -0.146524,-0.536172 -0.162851,-1.095468 -0.16979,-1.647854 -0.01202,-0.530335 -0.0041,-1.061542 0.04118,-1.59018 0.04137,-0.466363 0.114502,-0.927867 0.218814,-1.384086 0.153698,-0.566185 0.315868,-1.130042 0.492329,-1.689557 0.237577,-0.691953 0.506588,-1.373643 0.780505,-2.052064 0.308088,-0.796345 0.656919,-1.575852 1.016519,-2.349975 0.480949,-1.016029 1.035482,-1.998478 1.556076,-2.99259 0.317009,-0.605353 -0.634717,1.210362 -0.957946,1.812417 -0.04615,0.08594 0.08432,-0.175938 0.126564,-0.263869 0.04324,-0.09003 0.0866,-0.18001 0.129901,-0.270015 0.04631,-0.09286 0.09096,-0.186558 0.138918,-0.278577 0.412042,-0.790672 0.821601,-1.582677 1.241045,-2.369448 0.227108,-0.425998 0.514524,-0.823583 0.758308,-1.240543 0.293092,-0.53403 0.625799,-1.043261 0.950692,-1.557588 0.124546,-0.249311 0.277241,-0.481827 0.412431,-0.725009 0,0 -0.780081,2.284057 -0.780081,2.284057 l 0,0 c -0.141449,0.239506 -0.275973,0.482995 -0.421531,0.720008 -0.316512,0.502273 -0.646732,0.995578 -0.930487,1.51796 -0.1916,0.31605 -0.391026,0.627783 -0.577036,0.947177 -0.05947,0.102108 -0.227831,0.414029 -0.173821,0.308935 0.262646,-0.511047 1.358984,-2.611868 0.800102,-1.526827 -0.664521,1.361694 -2.660252,5.174543 -0.551664,1.1077 0.10831,-0.208898 -0.455403,0.855592 -0.323909,0.627222 -0.355043,0.774952 -0.730919,1.54184 -1.025219,2.343023 -0.272995,0.671026 -0.531948,1.34805 -0.786095,2.026198 -0.17019,0.553659 -0.331586,1.109231 -0.491521,1.666034 -0.123607,0.44465 -0.190678,0.901333 -0.23812,1.360143 -0.08673,0.524712 -0.07161,1.062477 -0.07834,1.592906 -0.0091,0.516533 -0.0094,1.047134 0.143468,1.545303 0,0 -1.301296,2.079099 -1.301296,2.079099 z"
           id="path3840"
           style="fill:#0044aa;fill-opacity:1;stroke:#4293ff;stroke-width:2;stroke-linecap:round;stroke-linejoin:miter;stroke-miterlimit:4;stroke-opacity:1;stroke-dasharray:none" />
        <path
           d="m 12.672475,87.063339 c 0.483374,-0.106657 0.963442,-0.270823 1.435188,-0.428729 0.942464,-0.224991 1.87122,-0.498318 2.807049,-0.748688 1.154538,-0.295049 2.269966,-0.721918 3.366633,-1.183813 1.083863,-0.50755 2.150003,-1.053042 3.197537,-1.631929 0.919335,-0.576403 1.80907,-1.198867 2.70809,-1.80633 0.900492,-0.643582 1.79037,-1.300958 2.655994,-1.990814 1.006276,-0.760746 1.925205,-1.626722 2.858273,-2.473395 0.623204,-0.575637 1.201935,-1.192729 1.740683,-1.84705 0,0 -0.807523,2.228146 -0.807523,2.228146 l 0,0 c -0.546363,0.616995 -1.132311,1.197225 -1.738511,1.755444 -0.937841,0.850508 -1.867565,1.712155 -2.876419,2.479466 -0.875275,0.69533 -1.76854,1.367352 -2.683555,2.009687 -0.902609,0.600078 -1.787169,1.228969 -2.720424,1.781447 -1.054476,0.572527 -2.12786,1.111083 -3.21689,1.614805 -1.109429,0.457937 -2.236913,0.876734 -3.398641,1.183364 -0.942158,0.261856 -1.879469,0.541729 -2.818785,0.812947 -0.489074,0.169277 -0.978188,0.338111 -1.46873,0.502514 0,0 0.960033,-2.257069 0.960033,-2.257069 z"
           id="path3842"
           style="fill:#0044aa;fill-opacity:1;stroke:#4293ff;stroke-width:2;stroke-linecap:round;stroke-linejoin:miter;stroke-miterlimit:4;stroke-opacity:1;stroke-dasharray:none" />
        <path
           d="m 21.541755,92.827189 c -2.0876,4.091342 -0.725521,1.303842 -0.249279,0.369591 0.812138,-1.621414 1.701391,-3.203823 2.6893,-4.72425 0.577417,-0.873506 1.177766,-1.732257 1.799032,-2.575173 0.557772,-0.754253 1.111454,-1.510694 1.685086,-2.253092 0.36071,-0.484123 0.854733,-0.8328 1.348233,-1.16847 0.467327,-0.384509 0.956304,-0.740478 1.449214,-1.09117 0,0 -0.87055,2.227476 -0.87055,2.227476 l 0,0 c -0.494496,0.347859 -0.96862,0.721439 -1.44947,1.087598 -0.472873,0.338609 -0.92793,0.70045 -1.274195,1.174573 -0.566844,0.724196 -1.113768,1.462789 -1.659821,2.202729 -0.61417,0.84685 -1.212124,1.706176 -1.786311,2.580627 -0.482014,0.757049 -2.556634,4.35066 -0.534805,0.66024 -0.663473,1.267714 -1.1932,2.602342 -1.943571,3.826729 0,0 0.797137,-2.317408 0.797137,-2.317408 z"
           id="path3844"
           style="fill:#0044aa;fill-opacity:1;stroke:#4293ff;stroke-width:2;stroke-linecap:round;stroke-linejoin:miter;stroke-miterlimit:4;stroke-opacity:1;stroke-dasharray:none" />
      </g>
    </g>
  </g>
</svg>
