<?xml version="1.0" encoding="UTF-8" standalone="no"?>
<!-- Created with Inkscape (http://www.inkscape.org/) -->

<svg
   xmlns:dc="http://purl.org/dc/elements/1.1/"
   xmlns:cc="http://creativecommons.org/ns#"
   xmlns:rdf="http://www.w3.org/1999/02/22-rdf-syntax-ns#"
   xmlns:svg="http://www.w3.org/2000/svg"
   xmlns="http://www.w3.org/2000/svg"
   version="1.1"
   width="85"
   height="85"
   id="svg2">
  <metadata
     id="metadata8">
    <rdf:RDF>
      <cc:Work
         rdf:about="">
        <dc:format>image/svg+xml</dc:format>
        <dc:type
           rdf:resource="http://purl.org/dc/dcmitype/StillImage" />
        <dc:title></dc:title>
      </cc:Work>
    </rdf:RDF>
  </metadata>
  <defs
     id="defs6" />
  <g
     transform="translate(99.032964,24.614848)"
     id="g3785"
     style="stroke:#86661a;stroke-linecap:round;stroke-opacity:1">
    <path
       d="m -70.972975,44.972973 a 14.405405,16.162163 0 1 1 -4.38e-4,-0.126027"
       transform="matrix(2.8024182,0,0,2.4978073,182.73213,-94.448684)"
       id="path2991"
       style="fill:#fa9e0e;fill-opacity:1;stroke:#86661a;stroke-width:0.94491792;stroke-linecap:round;stroke-linejoin:miter;stroke-miterlimit:4;stroke-opacity:1;stroke-dasharray:none" />
    <path
       d="m -79.756757,49.540541 c 0,0 5.788655,-29.763379 20.378379,-45.6756762 11.627179,-12.6811942 31.27027,-14.4054058 31.27027,-14.4054058"
       id="path3761"
       style="fill:none;stroke:#86661a;stroke-width:2.5;stroke-linecap:round;stroke-linejoin:miter;stroke-miterlimit:4;stroke-opacity:1;stroke-dasharray:none" />
    <path
       d="m -84.499996,-11.418919 c 0,0 29.763375,5.788655 45.675673,20.3783785 12.681194,11.6271795 14.405406,31.2702705 14.405406,31.2702705"
       id="path3761-5"
       style="fill:none;stroke:#86661a;stroke-width:2.5;stroke-linecap:round;stroke-linejoin:miter;stroke-miterlimit:4;stroke-opacity:1;stroke-dasharray:none" />
    <path
       d="m -42.162162,55.162162 c 0,0 -10.302839,-37.134079 2.108108,-46.3783782 6.58349,-4.9037152 23.891892,5.9729732 23.891892,5.9729732"
       id="path3781"
       style="fill:none;stroke:#86661a;stroke-width:2.5;stroke-linecap:round;stroke-linejoin:miter;stroke-miterlimit:4;stroke-opacity:1;stroke-dasharray:none" />
    <path
       d="m -93.459459,7.3783784 c 0,0 22.475356,-4.7579845 27.405405,-13.7027027 2.272596,-4.1232317 -1.405405,-14.0540537 -1.405405,-14.0540537"
       id="path3783"
       style="fill:none;stroke:#86661a;stroke-width:2.5;stroke-linecap:round;stroke-linejoin:miter;stroke-miterlimit:4;stroke-opacity:1;stroke-dasharray:none" />
  </g>
  <path
     d="m 33.19688,70.961518 c 3.900378,7.602149 10.970659,7.634416 13.708164,7.432138"
     id="path2988"
     style="fill:none;stroke:#000000;stroke-width:2;stroke-linecap:round;stroke-linejoin:miter;stroke-miterlimit:4;stroke-opacity:1;stroke-dasharray:none" />
  <path
     d="m 33.031721,79.05429 c 8.199837,0.123635 12.819227,-7.570626 12.882372,-8.423089"
     id="path2990"
     style="fill:none;stroke:#000000;stroke-width:2;stroke-linecap:round;stroke-linejoin:miter;stroke-miterlimit:4;stroke-opacity:1;stroke-dasharray:none" />
</svg>
