<?xml version="1.0" encoding="UTF-8" standalone="no"?>
<!-- Created with Inkscape (http://www.inkscape.org/) -->

<svg
   xmlns:dc="http://purl.org/dc/elements/1.1/"
   xmlns:cc="http://creativecommons.org/ns#"
   xmlns:rdf="http://www.w3.org/1999/02/22-rdf-syntax-ns#"
   xmlns:svg="http://www.w3.org/2000/svg"
   xmlns="http://www.w3.org/2000/svg"
   version="1.1"
   width="85"
   height="85"
   id="svg2">
  <metadata
     id="metadata8">
    <rdf:RDF>
      <cc:Work
         rdf:about="">
        <dc:format>image/svg+xml</dc:format>
        <dc:type
           rdf:resource="http://purl.org/dc/dcmitype/StillImage" />
        <dc:title></dc:title>
      </cc:Work>
    </rdf:RDF>
  </metadata>
  <defs
     id="defs6" />
  <g
     transform="matrix(1,0,0,0.15031079,99.032964,71.485542)"
     id="g3785"
     style="stroke:#86661a;stroke-linecap:round;stroke-opacity:1">
    <path
       d="m -70.972975,44.972973 a 14.405405,16.162163 0 1 1 -4.38e-4,-0.126027"
       transform="matrix(2.8024182,0,0,2.4978073,182.73213,-94.448684)"
       id="path2991"
       style="fill:#fa9e0e;fill-opacity:1;stroke:#86661a;stroke-width:0.94491792;stroke-linecap:round;stroke-linejoin:miter;stroke-miterlimit:4;stroke-opacity:1;stroke-dasharray:none" />
    <path
       d="m -79.756757,49.540541 c 0,0 5.788655,-29.763379 20.378379,-45.6756762 11.627179,-12.6811942 31.27027,-14.4054058 31.27027,-14.4054058"
       id="path3761"
       style="fill:none;stroke:#86661a;stroke-width:2.5;stroke-linecap:round;stroke-linejoin:miter;stroke-miterlimit:4;stroke-opacity:1;stroke-dasharray:none" />
    <path
       d="m -84.499996,-11.418919 c 0,0 29.763375,5.788655 45.675673,20.3783785 12.681194,11.6271795 14.405406,31.2702705 14.405406,31.2702705"
       id="path3761-5"
       style="fill:none;stroke:#86661a;stroke-width:2.5;stroke-linecap:round;stroke-linejoin:miter;stroke-miterlimit:4;stroke-opacity:1;stroke-dasharray:none" />
    <path
       d="m -42.162162,55.162162 c 0,0 -10.302839,-37.134079 2.108108,-46.3783782 6.58349,-4.9037152 23.891892,5.9729732 23.891892,5.9729732"
       id="path3781"
       style="fill:none;stroke:#86661a;stroke-width:2.5;stroke-linecap:round;stroke-linejoin:miter;stroke-miterlimit:4;stroke-opacity:1;stroke-dasharray:none" />
    <path
       d="m -93.459459,7.3783784 c 0,0 22.475356,-4.7579845 27.405405,-13.7027027 2.272596,-4.1232317 -1.405405,-14.0540537 -1.405405,-14.0540537"
       id="path3783"
       style="fill:none;stroke:#86661a;stroke-width:2.5;stroke-linecap:round;stroke-linejoin:miter;stroke-miterlimit:4;stroke-opacity:1;stroke-dasharray:none" />
  </g>
  <path
     d="m 49.972302,75.986261 c -7.04254,3.427462 -13.710569,2.934354 -16.023684,1.887347"
     id="path2988"
     style="fill:none;stroke:#000000;stroke-width:1.68334866;stroke-linecap:round;stroke-linejoin:miter;stroke-miterlimit:4;stroke-opacity:1;stroke-dasharray:none" />
  <path
     d="m 38.385554,69.377789 c -1.344717,0.109316 -1.523278,2.484996 -1.352097,3.827738 0.16031,1.257463 0.87453,3.332483 2.124722,3.149405 1.219064,-0.17852 1.231853,-2.306878 1.110651,-3.537024 -0.128279,-1.301967 -0.583629,-3.545772 -1.883276,-3.440119 z"
     id="path2989"
     style="fill:#000000;fill-opacity:1;stroke:none" />
  <path
     d="m 39.026106,70.13925 c -0.571247,0.04644 -0.647101,1.055646 -0.574382,1.626053 0.0681,0.534181 0.371507,1.415665 0.902599,1.337892 0.517867,-0.07584 0.5233,-0.97998 0.471813,-1.502556 -0.05449,-0.553085 -0.24793,-1.506271 -0.80003,-1.461389 z"
     id="path2995"
     style="fill:#ffffff;fill-opacity:1;stroke:none" />
  <path
     d="m 43.02641,68.178701 c -1.624416,0.132054 -1.840118,3.001873 -1.63333,4.623904 0.193654,1.519013 1.05643,4.025637 2.566661,3.804478 1.472628,-0.215651 1.488077,-2.786708 1.341665,-4.272722 -0.154961,-1.572776 -0.705024,-4.28329 -2.274996,-4.15566 z"
     id="path2991-5"
     style="fill:#000000;fill-opacity:1;stroke:none" />
  <path
     d="m 43.881759,69.193924 c -0.571246,0.04644 -0.647101,1.055645 -0.574382,1.626052 0.0681,0.53418 0.371508,1.415666 0.902599,1.337892 0.517867,-0.07584 0.523301,-0.97998 0.471813,-1.502555 -0.05449,-0.553087 -0.24793,-1.506272 -0.80003,-1.461389 z"
     id="path2997"
     style="fill:#ffffff;fill-opacity:1;stroke:none" />
</svg>
