<?xml version="1.0" encoding="UTF-8" standalone="no"?>
<!-- Created with Inkscape (http://www.inkscape.org/) -->

<svg
   xmlns:dc="http://purl.org/dc/elements/1.1/"
   xmlns:cc="http://creativecommons.org/ns#"
   xmlns:rdf="http://www.w3.org/1999/02/22-rdf-syntax-ns#"
   xmlns:svg="http://www.w3.org/2000/svg"
   xmlns="http://www.w3.org/2000/svg"
   version="1.1"
   width="85.171677"
   height="84.404411"
   id="svg2">
  <metadata
     id="metadata8">
    <rdf:RDF>
      <cc:Work
         rdf:about="">
        <dc:format>image/svg+xml</dc:format>
        <dc:type
           rdf:resource="http://purl.org/dc/dcmitype/StillImage" />
        <dc:title></dc:title>
      </cc:Work>
    </rdf:RDF>
  </metadata>
  <defs
     id="defs6" />
  <g
     transform="matrix(0.49995768,0,0,0.49995768,-10.827209,-12.105865)"
     id="g3839">
    <path
       d="m 38.666667,157.33333 c 0,0 8.812188,4.819 13.333333,7 7.437958,3.58808 14.762447,7.60817 22.666667,10 7.448206,2.25384 15.226263,3.64707 23,4 C 108.58053,178.82883 129,176 130.33333,175.66667 c 1.33334,-0.33334 17.89153,-6.61482 26.33334,-11 5.36178,-2.78523 10.6123,-5.89598 15.33333,-9.66667 3.06949,-2.4516 4.60906,-4.21636 7,-7.33333 C 183.05982,142.37406 189,127 189,127 c 0,0 -2.06061,16.54365 -5.33333,23 -2.91416,5.74899 -6.92434,10.96519 -11.33334,15.66667 C 167.79838,170.50245 160.66667,177 157,178.33333 153.33333,179.66667 132.83456,191.6185 111.66666,192 103.97552,192.13861 94.008867,191.9612 86.666667,189.66667 78.547556,187.12933 72.122728,184.75142 64.333333,181.33333 59.229775,179.09382 51.222357,174.30445 47,170.66667 43.029321,167.24573 38.666667,157.33333 38.666667,157.33333 z"
       id="path3802"
       style="fill:#9bcdff;fill-opacity:1;stroke:#787878;stroke-width:2;stroke-linecap:butt;stroke-linejoin:miter;stroke-miterlimit:4;stroke-opacity:1;stroke-dasharray:none" />
    <path
       d="m 28.333333,135.33333 c 0,0 12.568546,9.62809 19.666667,13 8.411912,3.99602 17.53357,6.51264 26.666667,8.33334 8.425055,1.67955 17.081154,2.6358 25.666663,2.33333 8.9999,-0.31707 17.97703,-1.96922 26.66667,-4.33333 7.70526,-2.0963 15.55667,-4.44266 22.33333,-8.66667 6.53963,-4.07626 11.61694,-10.15256 17,-15.66667 4.23493,-4.33802 9.19855,-8.29033 12,-13.66666 2.59023,-4.97096 4.68543,-10.97571 6.33333,-16.33334 C 186.44444,94.553417 189,80 189,80 c 0,0 1.273,11.520499 1.66667,15.666667 0.36773,3.873056 0.33179,7.776193 0.33333,11.666663 0.002,4.00154 0.11623,8.02379 -0.33333,12 -0.44555,3.9408 -0.93768,7.95445 -2.33334,11.66667 -1.80419,4.79884 -5.00393,10.76807 -8.33333,14.66666 -5.28523,6.18878 -10.30429,11.04044 -17,15.66668 -6.14583,4.24632 -13.77456,6.78545 -20.66667,9.66666 -5.94315,2.4845 -12.32231,3.88507 -18.66666,5 -8.8972,1.56356 -17.97919,2.81274 -27.000003,2.33333 C 87.962569,177.87075 79.336505,175.87852 71,173.33333 64.999818,171.50144 59.259069,168.84307 53.666667,166 c -5.19782,-2.64247 -10.779975,-4.97615 -15,-9 C 35.76729,154.2354 33.72903,150.61384 32,147 30.240645,143.32278 28.333333,135.33333 28.333333,135.33333 z"
       id="path3804"
       style="fill:#f8ff0f;fill-opacity:1;stroke:#787878;stroke-width:2;stroke-linecap:butt;stroke-linejoin:miter;stroke-miterlimit:4;stroke-opacity:1;stroke-dasharray:none" />
    <path
       d="m 23,106.66667 c 0,0 7.964463,10.70801 13,15 4.974818,4.24023 10.748059,7.55872 16.666667,10.33333 5.726527,2.68456 11.837225,4.57866 18,6 7.42649,1.71279 15.046433,3.1359 22.666666,3 8.675257,-0.15472 17.327457,-1.93719 25.666667,-4.33333 6.70316,-1.92605 13.38484,-4.35893 19.33333,-8 4.23495,-2.59221 7.78908,-6.18923 11.33334,-9.66667 4.66322,-4.57531 9.01204,-9.49219 13,-14.66667 2.44552,-3.17313 4.94412,-6.38306 6.66666,-9.999997 2.9013,-6.09207 4.78089,-12.69672 6,-19.333333 0.64364,-3.503867 0.67814,-7.104192 0.66667,-10.666667 -0.0104,-3.229859 -0.66667,-9.666666 -0.66667,-9.666666 0,0 5.97907,6.81758 8.33334,10.666666 1.78975,2.92613 3.38702,6.036378 4.33333,9.333334 0.74142,2.583121 1.2487,5.324113 1,8 -0.5398,5.808038 -1.85545,11.788588 -3.66666,17.333333 -1.52742,4.67595 -4.77778,8.66666 -6.33334,13.33333 -0.55556,1.66667 -0.78824,3.47856 -1.66667,5 -3.93551,6.81633 -9.97956,12.22539 -15.66666,17.66667 -3.82422,3.65892 -7.82055,7.23467 -12.33334,10 -7.46455,4.5741 -24,10.66667 -24,10.66667 l -17.33333,2 -27.333333,-1 c 0,0 -12.985277,-2.26483 -19.333334,-4 -4.304555,-1.1766 -8.688429,-2.31165 -12.666666,-4.33334 -3.627336,-1.84336 -6.621363,-4.73276 -10,-7 -3.071122,-2.06088 -7.087193,-3.06166 -9.333334,-6 -2.689009,-3.51769 -3.028806,-8.34674 -4,-12.66666 -1.254596,-5.58051 -2.333333,-17 -2.333333,-17 z"
       id="path3806"
       style="fill:#ff0ff1;fill-opacity:1;stroke:#787878;stroke-width:2;stroke-linecap:butt;stroke-linejoin:miter;stroke-miterlimit:4;stroke-opacity:1;stroke-dasharray:none" />
    <path
       d="m 25.666667,87.333333 c 0,0 3.469446,9.529503 6.666666,13.333337 4.089442,4.86534 9.73742,8.31989 15.333334,11.33333 6.251831,3.36665 13.17724,5.36618 20,7.33333 6.65874,1.91986 13.405679,4.15358 20.333333,4.33334 7.760867,0.20138 15.59112,-1.34715 23,-3.66667 6.35509,-1.98961 12.37101,-5.10855 18,-8.66667 3.74036,-2.3643 7.13957,-5.27063 10.33333,-8.33333 4.37563,-4.196063 8.31048,-8.856204 12,-13.666667 2.4381,-3.178844 4.67008,-6.526813 6.66667,-10 3.02138,-5.255885 6.52614,-10.452788 8,-16.333333 0.75684,-3.019695 0.40369,-6.221034 0.33333,-9.333333 -0.0932,-4.123549 -5,-13.000001 -5,-13.000001 0,0 11.96227,8.062494 13.66667,13.000001 1.05141,3.045857 1.86689,5.784004 1.66667,8.999999 -0.27832,4.470377 -0.0505,8.956111 -1.00001,13.333334 -1.18458,5.460676 -3.46376,11.354407 -6,16.333334 -2.45107,4.81173 -5.18061,10.209266 -8.66666,14.333336 -4.76875,5.64154 -5.07016,8.51181 -10.66667,13.33333 -4.22745,3.64204 -13.58102,9.70391 -18.66666,12 -7.90931,3.57093 -16.13184,5.42984 -24.66667,7 -5.84199,1.07475 -20.333333,0.66667 -20.333333,0.66667 L 68,137.66667 c 0,0 -9.96602,-3.34868 -14.666667,-5.66667 -4.785443,-2.3598 -9.410209,-5.11592 -13.666666,-8.33333 -3.261581,-2.46539 -6.308627,-5.25559 -9,-8.33334 -2.41478,-2.76145 -5.047441,-5.56441 -6.333334,-9 -1.135536,-3.03387 -1.229639,-6.435396 -1,-9.666663 0.227331,-3.198792 2.333334,-9.333334 2.333334,-9.333334 z"
       id="path3808"
       style="fill:#9bcdff;fill-opacity:1;stroke:#787878;stroke-width:2;stroke-linecap:butt;stroke-linejoin:miter;stroke-miterlimit:4;stroke-opacity:1;stroke-dasharray:none" />
    <path
       d="m 34.666667,63 c 0,0 -0.584684,11.54922 1,17 1.596781,5.492389 4.096231,11.157732 8.333333,15 4.755423,4.312289 11.467561,5.99905 17.666667,7.66667 6.481459,1.74358 13.289223,2.21148 20,2.33333 5.572386,0.10118 11.181498,-0.34608 16.666666,-1.33333 7.615627,-1.3707 15.353317,-2.99329 22.333337,-6.333337 5.89554,-2.821104 11.12036,-6.985328 16,-11.333333 4.3471,-3.873488 8.58055,-8.062676 11.66666,-13 2.03414,-3.254332 3.11764,-7.026548 4.33334,-10.666667 1.23792,-3.706637 3.16458,-7.42891 3,-11.333333 -0.13913,-3.300641 -2.07789,-6.277611 -3.33334,-9.333333 C 150.93543,38.264209 144,32.333334 144,32.333334 c 0,0 15.4368,6.389661 19,11.666666 2.4448,3.620686 2.91951,5.631941 3,10 0.0678,3.681162 -0.0799,7.435036 -1,11 -1.51682,5.876969 -1.81639,11.832399 -5,17 -3.02215,4.905519 -4.95208,7.928857 -8.66666,12.333333 -2.74272,3.252116 -8.85339,7.803527 -12.00001,10.666667 -3.124,2.84256 -7.69705,4.85129 -11.33333,7 -6.37476,3.76691 -12.88632,7.61175 -20,9.66667 -7.62697,2.2032 -15.74455,3.1812 -23.666667,2.66666 C 75.539693,123.76218 66.880472,121.19182 58.666667,118 53.475931,115.98292 48.660971,113.04757 44,110 c -3.64589,-2.38386 -7.475552,-4.71239 -10.333333,-8 -3.526143,-4.056501 -7.156618,-8.691743 -8,-14 -0.516317,-3.249704 0.97699,-6.53927 2,-9.666667 1.746808,-5.34009 7,-15.333333 7,-15.333333 z"
       id="path3810"
       style="fill:#f8ff0f;fill-opacity:1;stroke:#787878;stroke-width:2;stroke-linecap:butt;stroke-linejoin:miter;stroke-miterlimit:4;stroke-opacity:1;stroke-dasharray:none" />
    <path
       d="M 58,37.666667 C 54.562378,39.765471 52.806164,42.47695 49.666667,45 c -3.03131,2.436106 -5.598532,4.941175 -8,8 -2.486229,3.166787 -4.735554,6.510892 -6,10.333333 -1.432412,4.330204 -1.939175,8.203437 -1,12.666667 1.470175,6.986694 3.283023,14.364489 7.666666,20 2.839139,3.649932 7.146069,6.03798 11.333334,8 5.832983,2.73316 12.273494,4.21185 18.666666,5 6.727758,0.8294 13.605522,0.49563 20.333334,-0.33333 C 100.93231,107.64823 109.15228,105.7877 117,103 c 4.77627,-1.69665 9.7252,-3.479789 13.66667,-6.666667 C 134.72847,93.049166 138.87009,90.18182 142,86 c 2.86366,-3.826091 6.67387,-9.491905 9,-13.666667 2.52103,-4.524552 2.38194,-9.315702 3.66667,-14.333333 0.52654,-2.056436 1.01838,-4.2399 0.66666,-6.333333 C 154.37796,45.980352 151.98678,40.165637 148,36 144.18572,32.014601 138.60306,29.964907 133.33333,28.333333 126.17142,26.115918 118.42633,26.695946 111,25.666667 c -4.23406,-0.586834 -6.39403,-0.460445 -10.66667,-0.333333 -4.661955,0.138695 -11.170272,0.09416 -15.666663,1.333333 -5.758509,1.587007 -11.745751,2.82556 -17,5.666666 C 64.674874,33.951072 60.902887,35.894339 58,37.666667 z"
       id="path3812"
       style="fill:#ff0ff1;fill-opacity:1;stroke:#787878;stroke-width:2;stroke-linecap:butt;stroke-linejoin:miter;stroke-miterlimit:4;stroke-opacity:1;stroke-dasharray:none" />
    <path
       d="m 47.333333,56.333333 c -1.101558,2.162281 -1.887257,4.575917 -2,7 -0.168067,3.61361 0.611899,7.326069 2,10.666667 1.655651,3.984483 4.026462,7.895046 7.333334,10.666667 4.115789,3.449607 9.525278,5.115656 14.666666,6.666666 6.033503,1.820136 12.369175,2.759916 18.666667,3 1.336984,0.05097 2.667216,-0.215813 4,-0.333333 4.779858,-0.42147 9.63461,-0.36036 14.33333,-1.333333 5.60837,-1.161334 11.12266,-2.956095 16.33334,-5.333334 4.12607,-1.88241 8.4233,-3.830064 11.66666,-7 3.57136,-3.49051 6.29317,-7.973586 8,-12.666666 1.4179,-3.898645 1.29434,-8.201597 1.66667,-12.333334 0.21962,-2.437093 0.93279,-4.960928 0.33333,-7.333333 -0.79359,-3.140707 -2.67984,-6.072652 -5,-8.333333 -2.1025,-2.0486 -4.9759,-3.159839 -7.66666,-4.333334 C 129.31535,34.307875 126.82328,33.61679 124.33333,33 c -4.27342,-1.058579 -8.60138,-2.146632 -13,-2.333333 C 106.53924,30.46318 101.77093,31.487291 97,32 c -4.563033,0.490366 -9.178914,0.706563 -13.666667,1.666667 -4.777001,1.021986 -9.365351,2.789238 -14,4.333333 -3.134202,1.044201 -4.584596,0.834175 -7.333333,2.666666 -2.748737,1.832492 -6.536098,5.475272 -8.666667,8.000001 -2.092878,2.480065 -4.526933,4.775138 -6,7.666666 z"
       id="path3814"
       style="fill:#9bcdff;fill-opacity:1;stroke:#787878;stroke-width:2;stroke-linecap:butt;stroke-linejoin:miter;stroke-miterlimit:4;stroke-opacity:1;stroke-dasharray:none" />
    <path
       d="m 59,57.333333 c -0.440336,3.641826 -1.434504,7.785728 0.333333,11 2.004947,3.645385 6.432987,5.552265 10.333334,7 7.235656,2.685738 15.305659,3.27083 23,2.666667 C 97.61178,77.611708 102.60487,76.299523 107,74 c 4.4749,-2.341258 8.55746,-5.68684 11.66667,-9.666667 1.89691,-2.428075 3.37002,-5.317217 4,-8.333333 0.6365,-3.047331 0.77851,-6.425561 -0.33334,-9.333333 -0.92982,-2.43171 -2.8616,-4.515064 -5,-6 C 113.75418,38.181247 109.28758,37.110683 105,36.333333 99.75108,35.38169 94.291327,35.322763 89,36 83.731679,36.674292 78.410065,37.943762 73.666667,40.333333 70.907765,41.723179 68.683112,43.994569 66.333333,46 c -1.973038,1.683899 -4.325663,3.112949 -5.666666,5.333333 -1.07311,1.776817 -1.417504,3.939282 -1.666667,6 z"
       id="path3816"
       style="fill:#f8ff0f;fill-opacity:1;stroke:#787878;stroke-width:2;stroke-linecap:butt;stroke-linejoin:miter;stroke-miterlimit:4;stroke-opacity:1;stroke-dasharray:none" />
    <path
       d="m 82,56 c 3.968231,4.046802 12.11598,3.20906 17,0.333333 1.84172,-1.084413 3.41325,-3.569733 3,-5.666666 -0.33559,-1.702859 -2.368054,-2.742488 -4,-3.333334 -2.193967,-0.794326 -4.735471,-0.562455 -7,0 -2.074242,0.515192 -3.843271,1.885043 -5.666667,3 C 84.176227,51.040872 82.626346,51.463672 82,52.666667 81.486877,53.652199 81.222065,55.206662 82,56 z"
       id="path3818"
       style="fill:#ff0ff1;fill-opacity:1;stroke:#787878;stroke-width:2;stroke-linecap:butt;stroke-linejoin:miter;stroke-miterlimit:4;stroke-opacity:1;stroke-dasharray:none" />
  </g>
</svg>
