<?xml version="1.0" encoding="UTF-8" standalone="no"?>
<!-- Created with Inkscape (http://www.inkscape.org/) -->

<svg
   xmlns:dc="http://purl.org/dc/elements/1.1/"
   xmlns:cc="http://creativecommons.org/ns#"
   xmlns:rdf="http://www.w3.org/1999/02/22-rdf-syntax-ns#"
   xmlns:svg="http://www.w3.org/2000/svg"
   xmlns="http://www.w3.org/2000/svg"
   version="1.1"
   width="85"
   height="120"
   id="svg2">
  <metadata
     id="metadata8">
    <rdf:RDF>
      <cc:Work
         rdf:about="">
        <dc:format>image/svg+xml</dc:format>
        <dc:type
           rdf:resource="http://purl.org/dc/dcmitype/StillImage" />
        <dc:title></dc:title>
      </cc:Work>
    </rdf:RDF>
  </metadata>
  <defs
     id="defs6" />
  <g
     transform="matrix(-1.2412099,0,0,1.2412099,95.037951,-18.693953)"
     id="g4604">
    <path
       d="m 49.179017,101.16855 -9.971379,0.61659 -6.647588,-2.312211 -2.631336,-3.082948 -2.769828,-2.158067 -4.98569,-2.774655 -2.354354,-6.320044 -4.847199,-11.252768 5.124182,0.770737 -5.124182,-4.778572 1.800388,-7.244932 -0.138492,-4.007834 2.354354,-6.474195 3.323794,-6.474194 c 0,0 2.769828,-0.462443 3.323793,-0.462443 0.553966,0 4.847199,1.695623 4.847199,1.695623 l 2.631337,2.928802 1.384914,3.391245 1.523405,8.169816 c 0,0 -0.276983,2.158065 0.138492,2.928803 0.415474,0.770737 3.87776,5.241014 3.87776,5.857604 0,0.61659 0.830948,6.474195 0.830948,7.090785 0,0.61659 0.830948,4.31613 1.661896,4.778571 0.830948,0.462444 6.786078,7.090785 6.786078,7.090785 l 1.384916,10.482029 -0.830948,1.695623"
       id="path3761"
       style="fill:#ffffff;fill-opacity:1;stroke:#000000;stroke-width:0.36527473px;stroke-linecap:butt;stroke-linejoin:miter;stroke-opacity:1" />
    <path
       d="m 66.679811,110.64145 c -1.29261,-0.49366 -3.362212,-1.35414 -4.599115,-1.91215 -1.2369,-0.55802 -2.528245,-1.01458 -2.869653,-1.01458 -0.341408,0 -2.224675,0.79899 -4.185039,1.77555 -2.656374,1.32326 -3.813479,1.71304 -4.542519,1.53017 -0.538018,-0.13496 -2.117162,-0.26345 -3.509204,-0.28553 l -2.530985,-0.0401 1.807846,-0.28446 1.807847,-0.28445 -2.252226,0.0645 c -1.238726,0.0354 -2.074522,-0.0526 -1.857328,-0.19564 0.266791,-0.17572 0.235009,-0.32159 -0.09797,-0.44964 -0.27108,-0.10426 0.583215,-0.10341 1.898438,0.002 1.415797,0.11335 2.669535,0.0192 3.073339,-0.23068 0.618711,-0.38295 0.623284,-0.42323 0.04928,-0.43386 -1.324428,-0.0245 -0.620084,-1.10219 0.899147,-1.37572 0.84254,-0.1517 2.125471,-0.49899 2.850957,-0.77176 0.86082,-0.32366 1.442076,-0.36487 1.673162,-0.1186 0.231082,0.24625 0.573489,0.14355 0.985616,-0.29565 0.600983,-0.64044 0.600014,-0.69754 -0.02003,-1.18071 -1.035068,-0.80656 -2.47547,-0.60424 -5.9868,0.84088 -3.703353,1.52416 -4.151471,1.58113 -5.991609,0.76179 -0.959403,-0.42719 -1.20958,-0.70224 -0.919703,-1.01116 0.285322,-0.30406 0.710553,-0.30829 1.50017,-0.0149 1.101362,0.40915 2.62738,0.15655 4.195564,-0.69448 0.397726,-0.21584 1.618023,-0.72595 2.71177,-1.13358 1.508963,-0.56238 1.753995,-0.74794 1.015865,-0.7693 -0.535021,-0.0155 -2.130638,0.41694 -3.545809,0.96094 -1.862433,0.71594 -2.891911,0.9128 -3.727636,0.71281 -0.635024,-0.15195 -0.950197,-0.35177 -0.700378,-0.44404 0.24982,-0.0923 0.362246,-0.32633 0.249838,-0.52015 -0.112405,-0.19382 0.261754,-0.3524 0.831465,-0.3524 1.0917,0 5.663228,-1.51182 5.40468,-1.78734 -0.08298,-0.0884 -0.590797,0.0174 -1.128479,0.23531 -0.537683,0.21785 -1.924656,0.39609 -3.082155,0.39609 -2.048124,0 -4.600558,0.89637 -3.578853,1.25682 0.268245,0.0946 0.108001,0.10371 -0.356106,0.0202 -0.567266,-0.10213 -0.759806,-0.007 -0.587467,0.29011 0.174041,0.3001 0.02788,0.36475 -0.455245,0.20135 -0.444354,-0.15029 -1.059894,0.0513 -1.638979,0.53669 -0.940337,0.78824 -1.915704,0.96775 -2.953159,0.54349 -0.772165,-0.31576 -0.728055,-1.29634 0.06082,-1.35206 0.602615,-0.0426 0.602615,-0.0531 0,-0.22091 -0.348011,-0.0969 -0.632747,-0.42841 -0.632747,-0.73666 0,-0.45824 0.445093,-0.5176 2.440593,-0.32551 1.342327,0.12921 2.643976,0.30198 2.892555,0.38394 0.248579,0.082 0.451962,-0.002 0.451962,-0.1854 0,-0.18393 -0.691501,-0.42307 -1.53667,-0.53143 -0.845168,-0.10836 -2.187494,-0.37048 -2.982947,-0.5825 -0.795453,-0.21202 -2.627493,-0.64118 -4.0712,-0.95369 -2.521339,-0.5458 -3.702545,-1.138993 -3.702545,-1.859424 0,-0.185975 0.2745,-0.338135 0.610001,-0.338135 0.479568,0 0.392071,-0.242408 -0.409203,-1.133678 -0.665761,-0.740537 -0.954558,-1.397109 -0.83279,-1.893326 0.128521,-0.52374 -0.02512,-0.818605 -0.494721,-0.949472 -0.428688,-0.119467 -0.681134,0.01102 -0.681134,0.352079 0,0.74074 -0.707593,0.681441 -3.059776,-0.256414 -1.144223,-0.456222 -2.002195,-1.034113 -2.002195,-1.348594 0,-0.706016 0.668016,-0.696499 2.306045,0.03287 1.924422,0.856878 1.594606,0.354349 -0.515187,-0.78497 -1.003659,-0.541993 -1.923274,-1.281824 -2.043589,-1.644071 -0.120315,-0.362244 -0.478759,-0.991868 -0.796543,-1.399159 -0.410264,-0.525821 -0.430548,-0.648208 -0.06996,-0.42211 0.345384,0.216569 0.424136,0.174119 0.246194,-0.132706 -0.143899,-0.248122 -0.38019,-0.373052 -0.525091,-0.277614 -0.579218,0.381483 -1.163051,-0.494814 -1.282752,-1.92533 -0.07787,-0.930649 -0.316331,-1.525025 -0.621001,-1.547878 -0.39828,-0.02986 -0.39636,-0.0035 0.01,0.135353 0.39141,0.133811 0.40337,0.239017 0.0534,0.46953 -0.81532,0.536976 -3.99273,-1.495544 -3.99273,-2.554075 0,-0.728218 0.62552,-0.644794 1.78983,0.238705 l 0.99754,0.756954 -0.17277,-0.963112 c -0.10702,-0.596614 0.0719,-1.251225 0.4702,-1.720236 0.35363,-0.416419 0.47245,-0.757124 0.26404,-0.757124 -0.2084,0 -0.48193,0.28606 -0.60782,0.635689 -0.20129,0.558993 -0.33683,0.527643 -1.1234,-0.259824 -0.91475,-0.915792 -1.18824,-1.917115 -0.52363,-1.917115 0.49111,0 -0.57455,-2.179432 -1.26783,-2.592888 -0.29448,-0.175622 -0.64023,-0.8778 -0.76834,-1.560401 l -0.23292,-1.241088 2.12422,-0.0051 2.12422,-0.0051 -2.64337,-1.562176 c -2.41191,-1.425387 -3.22895,-2.552313 -1.75559,-2.421439 0.52335,0.04649 0.52879,-0.03383 0.0515,-0.760031 -0.63107,-0.960142 -0.70266,-2.181794 -0.12786,-2.181794 0.28636,0 0.27756,-0.164712 -0.0299,-0.559478 -0.49975,-0.641693 -0.17634,-2.137969 0.46192,-2.137185 0.29232,3.59e-4 0.38841,-0.670116 0.30374,-2.119219 -0.0725,-1.240817 0.0257,-2.119745 0.23678,-2.119745 0.21201,0 0.28068,-0.635134 0.16664,-1.54125 -0.17379,-1.380761 -0.11373,-1.541251 0.57676,-1.541251 0.63669,0 0.77074,-0.229685 0.77074,-1.320596 0,-1.643561 1.9536,-5.708631 4.147747,-8.630701 0.902812,-1.20233 1.881522,-2.532831 2.174903,-2.956681 0.36587,-0.52856 0.620756,-0.63378 0.811468,-0.33496 0.152927,0.23962 1.783081,0.56146 3.622565,0.71521 2.277354,0.19034 3.344516,0.43184 3.344516,0.75688 0,0.262541 0.329257,0.794881 0.731682,1.182991 0.560922,0.54096 0.830949,0.59986 1.157022,0.25237 0.712303,-0.75907 1.098223,-0.50941 0.90215,0.58364 -0.221211,1.23318 0.658724,2.85996 1.386077,2.56252 0.717847,-0.29355 1.5291,1.64803 0.947546,2.26778 -0.579802,0.61787 -0.532262,1.06842 0.112735,1.06842 0.434928,0 0.505697,0.45706 0.372877,2.408205 -0.09016,1.324512 -0.07574,2.10477 0.03206,1.733907 0.189144,-0.650746 1.222557,-0.97379 1.232611,-0.385313 0.0027,0.158941 0.103045,0.679113 0.222955,1.155938 0.156703,0.623135 0.0621,0.866953 -0.336376,0.866953 -0.304916,0 -0.63646,-0.216738 -0.736764,-0.481641 -0.299341,-0.790559 -0.221531,2.093213 0.101366,3.756798 0.164534,0.847688 0.317863,1.324513 0.340732,1.05961 0.02287,-0.264902 0.366991,-0.481641 0.764717,-0.481641 0.587829,0 0.723139,0.256876 0.723139,1.372814 0,1.202503 0.100929,1.35786 0.813531,1.252267 0.762279,-0.112954 0.806191,-1.28e-4 0.697026,1.790836 -0.08709,1.428859 0.03287,2.027774 0.475157,2.372428 0.412514,0.321444 0.734242,1.629433 1.062555,4.319784 l 0.470893,3.858739 1.675328,1.68649 c 0.921431,0.927567 1.675328,1.981486 1.675328,2.342038 0,0.360553 0.217943,0.655548 0.484315,0.655548 0.266375,0 0.692969,0.476824 0.947991,1.05961 0.431768,0.986701 0.481998,1.006587 0.730002,0.288984 0.229987,-0.665469 0.301776,-0.600348 0.526105,0.477221 0.248608,1.1942 0.927281,2.130606 0.927281,1.279427 0,-0.224429 0.236687,-0.408054 0.525971,-0.408054 0.328113,0 0.607704,0.543542 0.743249,1.444923 0.119502,0.794707 0.472311,2.051789 0.78402,2.793516 0.85569,2.036162 1.562453,6.053562 1.562453,8.881313 0,2.282379 0.378415,3.448689 1.118945,3.448689 0.138149,0 0.109487,-0.65022 -0.06369,-1.44493 -0.173177,-0.794698 -0.318748,-2.022882 -0.323492,-2.729287 -0.01349,-2.008923 0.818394,-1.276541 1.272724,1.120489 0.376296,1.985318 1.072599,3.824348 1.447991,3.824348 0.0951,0 -0.07333,-0.62804 -0.374289,-1.39565 -0.954109,-2.433445 -0.434411,-11.041317 0.565035,-9.358811 0.277682,0.467454 0.323739,0.467149 0.328501,-0.0023 0.0029,-0.30022 0.09026,-0.455567 0.193819,-0.345209 0.103557,0.110353 0.01558,1.058754 -0.195475,2.107552 -0.270707,1.345157 -0.270639,2.184657 2.31e-4,2.849745 0.380313,0.933813 0.382616,0.932414 0.240375,-0.145987 -0.07899,-0.598853 -0.0145,-0.945634 0.143308,-0.770625 0.15781,0.175009 0.400138,1.141804 0.53851,2.148433 0.211414,1.538014 0.158433,1.830235 -0.331826,1.830235 -0.320875,0 -0.583407,0.233203 -0.583407,0.51823 0,0.700047 2.595244,4.926967 3.462927,5.640127 0.663523,0.54536 0.668343,0.5366 0.105976,-0.19266 -1.082662,-1.40396 -1.745346,-3.18335 -1.980869,-5.318853 -0.298761,-2.708917 0.124796,-6.526945 0.700364,-6.313259 0.288807,0.107225 0.387082,1.126246 0.309192,3.206025 -0.09163,2.446496 0.03847,3.428337 0.658472,4.969727 1.55767,3.87253 3.112863,5.2232 7.537809,6.54652 3.5047,1.04812 4.03047,1.35566 4.03047,2.3576 0,0.78012 -0.1749,0.9144 -1.1751,0.90213 -0.6463,-0.008 -2.23269,-0.41832 -3.5253,-0.91198 z m -16.089836,-0.22954 c -0.122905,-0.21192 -0.295214,-0.38532 -0.382909,-0.38532 -0.0877,0 -0.159445,0.1734 -0.159445,0.38532 0,0.21192 0.172309,0.38531 0.382909,0.38531 0.2106,0 0.282349,-0.17339 0.159445,-0.38531 z m 18.327046,0.1221 c -0.26101,-0.11131 -0.57286,-0.0976 -0.69301,0.0304 -0.12014,0.12804 0.0934,0.2191 0.47456,0.20237 0.42121,-0.0185 0.50688,-0.10979 0.21845,-0.23279 z m -19.163175,-2.31188 c -0.26101,-0.1113 -0.572864,-0.0976 -0.69301,0.0304 -0.120145,0.12804 0.09341,0.21911 0.47456,0.20238 0.42121,-0.0185 0.506884,-0.10979 0.21845,-0.23279 z m 7.866751,-3.0251 c 0.222672,0.14665 0.286392,0.005 0.157941,-0.35214 -0.294972,-0.81916 -0.597768,-0.75094 -1.193783,0.26897 -0.45945,0.78621 -0.45219,0.81901 0.07797,0.35214 0.321533,-0.28315 0.752574,-0.40419 0.95787,-0.26897 z m -0.124174,-1.81708 c 0.143051,-0.2649 0.126947,-0.3531 -0.03579,-0.196 -0.162732,0.1571 -0.554908,0.0704 -0.871498,-0.19266 -0.509303,-0.42318 -0.518447,-0.4006 -0.07939,0.19601 0.591448,0.80367 0.650492,0.8152 0.986676,0.19265 z m -3.642565,-1.04278 c -0.117536,-0.20267 -0.452551,-0.27081 -0.744479,-0.15143 -0.747403,0.30564 -0.659329,0.51991 0.213706,0.51991 0.409463,0 0.648312,-0.16581 0.530773,-0.36848 z m -5.392265,-1.66603 c 0.14978,-0.15961 0.104758,-0.46878 -0.10005,-0.687028 -0.252003,-0.268551 -1.083142,-0.274843 -2.571181,-0.01946 -1.258044,0.215908 -2.635392,0.237748 -3.219215,0.05106 -1.011617,-0.323487 -1.012618,-0.326913 -0.116483,-0.397826 l 0.903924,-0.07153 -0.903924,-0.308505 c -0.795807,-0.271599 -0.730934,-0.316731 0.542354,-0.377325 1.408078,-0.06701 1.420017,-0.07905 0.451962,-0.455829 -0.546874,-0.21285 -0.994316,-0.654314 -0.994316,-0.981025 0,-0.464494 0.256237,-0.539611 1.175101,-0.344481 1.131809,0.240351 1.146341,0.228028 0.394378,-0.334509 -0.506443,-0.378862 -1.169684,-0.501149 -1.88788,-0.34808 -0.951716,0.202844 -1.055808,0.338228 -0.741398,0.964284 0.303584,0.604505 0.205631,0.793189 -0.576252,1.109981 -1.412854,0.57244 -2.026726,0.465677 -2.236447,-0.388954 -0.153175,-0.624198 -0.473072,-0.761963 -1.683605,-0.725039 -1.359791,0.04148 -1.397126,0.0678 -0.414206,0.291956 0.653447,0.149019 1.131797,0.531373 1.210645,0.967682 0.115393,0.638532 -0.02934,0.691108 -1.261077,0.458129 -2.179554,-0.412262 -2.656924,-0.621833 -2.656924,-1.166411 0,-0.495485 -1.086351,-0.978625 -2.169416,-0.964815 -0.357796,0.0045 -0.197138,0.330563 0.472125,0.958018 0.557963,0.523108 1.251672,0.951106 1.541576,0.951106 0.289903,0 0.809625,0.158983 1.154937,0.353297 0.345312,0.194313 1.604078,0.642755 2.797257,0.996526 1.193179,0.35378 2.332122,0.71059 2.530985,0.79289 0.639732,0.26477 8.075135,-0.0236 8.35713,-0.32412 z m 2.564337,-3.070872 c -0.08618,-0.476825 -0.156694,-0.0867 -0.156694,0.866953 0,0.953649 0.07051,1.343778 0.156694,0.866953 0.08618,-0.476824 0.08618,-1.257082 0,-1.733906 z m -18.0022,1.913859 c -0.08286,-0.05997 -0.439114,-0.344577 -0.791677,-0.632468 -0.558075,-0.455705 -0.611553,-0.441595 -0.413278,0.109032 0.12526,0.347857 0.481515,0.632468 0.791677,0.632468 0.310163,0 0.496138,-0.04907 0.413278,-0.109032 z m 25.595156,-2.299172 c -0.08618,-0.476824 -0.156693,-0.08669 -0.156693,0.866953 0,0.953649 0.07051,1.343778 0.156693,0.866954 0.08618,-0.476825 0.08618,-1.257083 0,-1.733907 z m -8.312291,-0.963282 c -0.08284,-0.582785 -0.150626,-0.105961 -0.150626,1.05961 0,1.165571 0.06778,1.642395 0.150626,1.05961 0.08285,-0.582785 0.08285,-1.536434 0,-2.11922 z m -4.530012,2.33765 c -0.261006,-0.111306 -0.57286,-0.09762 -0.69301,0.0304 -0.120145,0.128035 0.09341,0.219104 0.47456,0.202374 0.42121,-0.0185 0.506884,-0.109791 0.21845,-0.232791 z m 3.858158,-1.952337 -0.05131,-1.830235 -0.258952,1.541251 -0.258952,1.54125 -0.05131,-1.818144 c -0.03699,-1.310614 0.07485,-1.767695 0.400651,-1.637424 0.532606,0.212958 1.396663,-1.569883 1.125631,-2.322565 -0.102975,-0.285967 -0.418705,-0.6146 -0.701626,-0.730298 -0.282917,-0.115694 -0.514397,-0.639041 -0.514397,-1.162989 0,-0.523948 -0.139201,-1.044317 -0.309337,-1.156369 -0.170137,-0.112057 -0.232522,0.224494 -0.138637,0.747884 0.2056,1.146147 -0.439122,1.244771 -1.649436,0.252318 -0.632468,-0.518616 -0.892215,-1.232492 -1.083421,-2.977604 l -0.251504,-2.295438 -0.182071,2.089304 c -0.102614,1.177523 -0.379308,2.158405 -0.634034,2.247655 -0.33469,0.117266 -0.451962,-0.593905 -0.451962,-2.740859 0,-3.183361 -0.569688,-4.310631 -0.85907,-1.699884 -0.100289,0.904768 -0.339586,3.03216 -0.531775,4.727535 l -0.349435,3.082501 1.864454,1.861041 c 1.731606,1.728435 4.520163,4.111305 4.811263,4.111305 0.06959,0 0.103445,-0.823606 0.07522,-1.830235 z m -1.033398,-3.949454 c 0,-0.423844 0.142784,-0.770626 0.317299,-0.770626 0.47414,0 1.158515,0.996026 0.884796,1.287719 -0.495002,0.527508 -1.202095,0.223347 -1.202095,-0.517093 z m -8.225703,4.368566 c -0.248579,-0.106889 -0.655344,-0.106889 -0.903923,0 -0.248579,0.10689 -0.0452,0.194348 0.451962,0.194348 0.497157,0 0.70054,-0.08746 0.451961,-0.194348 z m 11.719288,-0.997081 c -0.100303,-0.264902 -0.182372,-0.04816 -0.182372,0.481641 0,0.529805 0.08207,0.746543 0.182372,0.481641 0.100303,-0.264903 0.100303,-0.698379 0,-0.963282 z M 55.68961,96.2597 c -0.120149,-0.128036 -0.205602,0.09954 -0.189903,0.505722 0.01736,0.44887 0.103026,0.54017 0.218446,0.232795 0.104446,-0.27815 0.0916,-0.610482 -0.02853,-0.738517 z m -9.980822,0.280958 c 0,-0.211922 -0.284735,-0.382658 -0.632746,-0.379414 -0.540745,0.005 -0.553888,0.06021 -0.09039,0.379414 0.682357,0.469931 0.723138,0.469931 0.723138,0 z m -6.440454,-0.263211 c -0.261006,-0.111305 -0.572859,-0.09762 -0.693009,0.0304 -0.120146,0.128036 0.09341,0.219104 0.47456,0.202374 0.42121,-0.0185 0.506884,-0.109791 0.218449,-0.23279 z m 12.225564,-0.337499 c 0,-0.09345 -0.162706,-0.169915 -0.361569,-0.169915 -0.198863,0 -0.36157,0.183624 -0.36157,0.408053 0,0.22443 0.162707,0.300891 0.36157,0.169916 0.198863,-0.130976 0.361569,-0.3146 0.361569,-0.408054 z m -18.711214,-0.4251 c -0.248579,-0.10689 -0.655345,-0.10689 -0.903924,0 -0.248579,0.106889 -0.0452,0.194348 0.451962,0.194348 0.497158,0 0.700541,-0.08746 0.451962,-0.194348 z m 6.237071,-0.130128 c -0.397726,-0.182133 -1.618023,-0.317293 -2.71177,-0.300359 l -1.988631,0.03079 1.627062,0.269572 c 0.894884,0.148264 2.11518,0.283424 2.71177,0.300359 0.914188,0.02597 0.971027,-0.02127 0.361569,-0.300359 z M 55.68961,94.333136 c -0.120149,-0.128035 -0.205602,0.09954 -0.189903,0.505723 0.01736,0.44887 0.103026,0.54017 0.218446,0.232795 0.104446,-0.27815 0.0916,-0.610482 -0.02853,-0.738518 z m 3.254125,0 c -0.12015,-0.128035 -0.205603,0.09954 -0.189904,0.505723 0.01736,0.44887 0.103026,0.54017 0.218446,0.232795 0.104447,-0.27815 0.0916,-0.610482 -0.02853,-0.738518 z m -14.681224,0.540779 c 0,-0.06902 -0.434375,-0.545842 -0.965282,-1.05961 l -0.965282,-0.934117 0.694105,1.047503 c 0.589485,0.88961 1.236459,1.384725 1.236459,0.946224 z m 6.580562,-1.107508 c -0.337463,-0.359624 -0.433883,-0.256876 -0.433883,0.462375 0,0.719252 0.09642,0.821999 0.433883,0.462375 0.337464,-0.359623 0.337464,-0.565126 0,-0.92475 z m -15.913571,0.584477 c -0.261008,-0.111305 -0.572862,-0.09762 -0.693008,0.0304 -0.120146,0.128036 0.09341,0.219104 0.47456,0.202374 0.421207,-0.0185 0.506884,-0.109791 0.218448,-0.232791 z m 5.678721,-1.099725 c -0.613142,-0.646839 -1.57394,-1.032133 -3.296802,-1.322065 -3.072394,-0.51704 -4.492585,-1.071793 -4.023522,-1.571659 0.228012,-0.242982 1.029421,-0.237946 2.277645,0.01433 1.059217,0.214064 2.081499,0.389212 2.271738,0.389212 0.190238,0 -0.320089,-0.847668 -1.134059,-1.883708 -1.457126,-1.854664 -1.953495,-2.867909 -0.985565,-2.011845 0.374662,0.331357 0.597809,0.304436 0.921481,-0.111174 0.268357,-0.344585 0.295473,-0.635107 0.07296,-0.781661 -0.194779,-0.128286 -0.447385,-0.07247 -0.561347,0.124032 -0.113963,0.196506 -0.409942,0.323312 -0.657731,0.281791 -0.737443,-0.123573 -4.247004,-2.265137 -4.247004,-2.59157 0,-0.591297 0.793457,-0.810667 1.206605,-0.333596 0.331108,0.382338 0.266786,0.42767 -0.302682,0.213317 -0.55172,-0.207668 -0.62347,-0.165134 -0.302681,0.179436 0.815582,0.876051 1.256819,-0.0178 0.546607,-1.107323 -1.391,-2.133873 -3.697013,-7.169277 -3.514879,-7.675077 0.104132,-0.289183 0.05336,-0.436236 -0.112824,-0.326783 -0.335613,0.221042 -2.264465,-3.755805 -2.951524,-6.085361 -0.242554,-0.822408 -0.997424,-2.151617 -1.67749,-2.953799 -0.73431,-0.866168 -1.083697,-1.55914 -0.860285,-1.706284 0.206908,-0.136273 0.579579,-0.117558 0.828158,0.04159 0.353481,0.226311 0.358481,0.166115 0.02295,-0.276259 -0.235958,-0.31109 -0.379777,-1.043615 -0.319598,-1.627832 0.06018,-0.584218 0.02415,-0.971345 -0.08007,-0.860282 -0.104219,0.111062 -0.436257,-0.0133 -0.737864,-0.276366 -0.393431,-0.343154 -0.359859,-0.151685 0.118816,0.67764 l 0.667193,1.155938 -1.218251,-1.239917 c -1.344015,-1.367917 -1.234539,-2.026869 0.219447,-1.320885 1.065241,0.517229 1.073881,1.057207 -0.07786,-4.865885 -0.677111,-3.482203 -0.529463,-4.001803 1.043669,-3.672823 0.79665,0.1666 0.987151,0.40965 0.958275,1.22263 l -0.03604,1.01469 -0.258835,-0.96328 -0.258834,-0.96328 -0.197339,1.05961 c -0.108536,0.58278 -0.0572,1.05961 0.114091,1.05961 0.171287,0 0.324275,0.30343 0.339975,0.67429 0.0157,0.370866 0.08279,0.500909 0.149097,0.288987 0.0663,-0.211927 0.638806,-2.119217 1.272227,-4.238437 0.633421,-2.11922 1.298506,-4.01785 1.477965,-4.21918 0.679044,-0.76178 0.260124,-0.98254 -1.864465,-0.98254 -1.391872,0 -2.107937,0.1428 -1.963647,0.3916 0.124909,0.21537 0.37857,0.29184 0.563692,0.16991 0.430404,-0.28347 0.427306,0.61563 -0.0046,1.34314 -0.267568,0.45067 -0.506845,0.47027 -1.262473,0.10337 -0.870224,-0.42254 -1.006664,-0.34407 -2.048124,1.17785 -1.681802,2.45766 -2.759312,4.91567 -3.045072,6.946373 -0.14762,1.049087 -0.50465,1.971983 -0.84031,2.172164 -0.5243,0.312678 -0.50091,0.504924 0.23008,1.890959 0.69803,1.323521 0.73298,1.560825 0.24582,1.669 -0.51178,0.113644 -0.50987,0.202257 0.0194,0.896731 0.32301,0.423844 0.48427,0.553887 0.35835,0.288984 -0.27049,-0.569072 0.39193,-0.657986 0.71767,-0.09633 0.1229,0.211922 0.0416,0.385313 -0.18079,0.385313 -0.2309,0 -0.28481,0.206533 -0.12571,0.481641 0.15319,0.264902 -0.17674,0.164353 -0.73318,-0.223444 -1.53972,-1.073081 -1.52271,-0.504871 0.0267,0.893269 0.98691,0.890523 1.1196,1.11435 0.47057,0.793762 -0.81666,-0.403387 -0.84122,-0.392577 -0.25437,0.111979 0.35725,0.307159 0.9674,0.469892 1.35588,0.36163 0.73298,-0.204265 0.984221,0.435164 0.33817,0.860663 -0.54102,0.356331 -2.93711,-1.331024 -2.65188,-1.867487 0.13123,-0.246803 -0.0883,-0.10195 -0.48792,0.321894 -0.65566,0.695467 -0.74912,1.717982 -0.15944,1.744272 0.12788,0.0057 0.78588,0.499445 1.46224,1.097209 0.90964,0.803943 1.10686,1.167775 0.75767,1.397763 -0.33361,0.219717 -0.38527,0.161225 -0.17612,-0.199407 0.21965,-0.37873 0.12733,-0.441366 -0.35799,-0.2429 -0.39931,0.163292 -0.90631,0.02406 -1.30202,-0.357579 -0.99867,-0.963131 -1.3991,-0.373547 -0.86685,1.276332 0.40288,1.248861 0.61972,1.449312 1.5678,1.449312 0.60513,0 1.31176,0.242175 1.57028,0.538167 0.39032,0.446886 0.37805,0.483357 -0.0723,0.215021 -0.46208,-0.275317 -0.47112,-0.229506 -0.0611,0.309507 0.26467,0.34796 1.15956,0.991284 1.988632,1.42961 2.239014,1.183746 2.983114,1.868902 2.541172,2.339866 -0.257155,0.274042 -0.68276,0.272947 -1.365091,-0.0035 -0.690385,-0.279722 -1.17488,-0.278481 -1.595548,0.0041 -0.500155,0.335954 -0.464125,0.364991 0.209424,0.168755 0.595258,-0.173425 0.813531,-0.07301 0.813531,0.374258 0,0.675989 -0.967132,0.549976 -3.20789,-0.417971 -1.47142,-0.635616 -2.15524,-0.693501 -1.6343,-0.138347 0.20043,0.213587 1.08717,0.629917 1.97055,0.925186 0.92955,0.310693 1.30152,0.564302 0.88301,0.602024 -0.72314,0.06518 -0.72314,0.06518 0,0.430772 0.56238,0.284322 0.4521,0.321181 -0.49605,0.165811 -1.04826,-0.171776 -1.15664,-0.119474 -0.77308,0.373041 0.24536,0.315054 0.35993,0.812158 0.25459,1.104672 -0.12671,0.351883 0.41242,0.833288 1.59329,1.422693 1.271677,0.634737 1.652939,0.990905 1.326159,1.238881 -0.290373,0.220344 0.0388,0.274527 0.897252,0.147686 0.745737,-0.110188 1.355885,-0.07474 1.355885,0.07878 0,0.437919 -2.00746,0.489594 -3.023737,0.07783 -0.842539,-0.341368 -0.894889,-0.303615 -0.631429,0.455343 0.16943,0.488099 0.903874,1.067154 1.790435,1.411632 0.826739,0.321231 1.503162,0.808308 1.503162,1.082397 0,0.58413 -1.030264,0.648542 -1.807847,0.113031 -0.450999,-0.310596 -0.420548,-0.37862 0.180785,-0.403834 0.636181,-0.02666 0.618999,-0.07472 -0.142887,-0.399493 -1.346078,-0.573799 -1.366268,-0.07923 -0.0556,1.361838 0.777424,0.85477 1.682228,1.404711 2.575849,1.565598 0.757615,0.136405 1.569477,0.494541 1.804138,0.795856 0.354949,0.455774 0.221719,0.543298 -0.792716,0.520765 -1.043832,-0.0232 -1.11527,-0.07971 -0.496235,-0.392676 0.55684,-0.281521 0.432116,-0.319721 -0.542354,-0.166112 -0.906776,0.142936 -1.111757,0.09209 -0.723138,-0.17939 0.475522,-0.33219 0.471809,-0.379602 -0.03013,-0.384777 -1.034708,-0.01067 -0.955632,0.364826 0.395614,1.878557 1.639631,1.836797 2.767245,2.549429 2.976327,1.880992 0.108718,-0.347567 0.508748,-0.369588 1.565838,-0.08618 1.166436,0.31272 1.404445,0.534105 1.333686,1.240537 -0.05465,0.545553 0.110567,0.859883 0.451961,0.859883 0.29595,0 0.538091,-0.260086 0.538091,-0.577969 0,-0.684145 0.494082,-0.690148 3.615693,-0.04391 1.617531,0.33486 2.338951,0.657783 2.314115,1.035852 -0.02895,0.440632 0.49994,0.523851 2.673174,0.420615 l 2.709265,-0.128703 -0.86533,-0.912878 z m -8.578994,-2.827782 c -0.396892,-0.268112 -0.391557,-0.362891 0.03013,-0.535334 0.292293,-0.119528 0.512409,0.02296 0.512409,0.331692 0,0.297677 -0.01356,0.538579 -0.03013,0.535334 -0.01657,-0.0031 -0.247155,-0.152506 -0.512408,-0.331692 z M 18.952657,54.734241 c 0,-0.59938 0.20489,-0.96328 0.54235,-0.96328 0.337467,0 0.542357,0.3639 0.542357,0.96328 0,0.599373 -0.20489,0.963279 -0.542357,0.963279 -0.33746,0 -0.54235,-0.363906 -0.54235,-0.963279 z M 56.05118,92.406573 c -0.12015,-0.128035 -0.205603,0.09954 -0.189904,0.505723 0.01736,0.44887 0.103026,0.54017 0.218446,0.232794 0.104447,-0.278149 0.0916,-0.610481 -0.02853,-0.738517 z M 38.018558,91.264576 c -0.351795,-0.09769 -0.839914,-0.09127 -1.084708,0.0143 -0.244794,0.105549 0.04304,0.185478 0.639628,0.177625 0.596589,-0.0079 0.796877,-0.09421 0.44508,-0.191901 z m -2.343319,-0.37348 c -0.248579,-0.106889 -0.655345,-0.106889 -0.903924,0 -0.248579,0.10689 -0.0452,0.194348 0.451962,0.194348 0.497158,0 0.700541,-0.08746 0.451962,-0.194348 z m 4.332805,-0.596783 c -0.580655,-0.618789 -0.908151,-0.736152 -1.19656,-0.428803 -0.288409,0.307348 -0.274218,0.504093 0.05185,0.718847 0.289393,0.190598 0.357252,0.137587 0.190948,-0.149166 -0.378841,-0.653236 0.343083,-0.542694 0.869398,0.133121 0.247563,0.317883 0.547701,0.577969 0.666976,0.577969 0.119271,0 -0.142903,-0.383386 -0.582611,-0.851968 z m 1.962942,-0.78561 c -0.100303,-0.264903 -0.182372,-0.04816 -0.182372,0.48164 0,0.529805 0.08207,0.746544 0.182372,0.481641 0.100303,-0.264902 0.100303,-0.698379 0,-0.963281 z m 0.723138,0 c -0.100303,-0.264903 -0.182372,-0.04816 -0.182372,0.48164 0,0.529805 0.08207,0.746544 0.182372,0.481641 0.100303,-0.264902 0.100303,-0.698379 0,-0.963281 z m 7.594544,0.691247 c 0,-0.308563 -0.138242,-0.46997 -0.307207,-0.358688 -0.168962,0.111282 -0.213597,0.363739 -0.09918,0.561019 0.292372,0.504135 0.406389,0.447371 0.406389,-0.202331 z M 40.94103,86.329873 c -0.0091,-1.271531 -0.08534,-1.965094 -0.16945,-1.54125 -0.0841,0.423844 -0.231035,1.160754 -0.326515,1.637579 -0.09548,0.476824 -0.428854,0.866953 -0.740841,0.866953 -0.473826,0 -0.517351,-0.269696 -0.264289,-1.637579 0.166629,-0.900668 0.272916,-3.718266 0.236195,-6.26133 -0.06067,-4.201976 -0.134883,-4.671973 -0.813531,-5.152389 -0.612108,-0.433312 -0.746767,-0.932527 -0.746767,-2.768433 0,-1.231887 0.158678,-2.684559 0.35262,-3.22816 0.193943,-0.543601 0.226484,-0.988365 0.07231,-0.988365 -0.626316,0 -1.148073,0.998129 -1.148073,2.196282 0,0.921394 -0.163214,1.271531 -0.592717,1.271531 -0.494894,0 -0.558806,-0.302067 -0.387245,-1.830235 0.11301,-1.006629 0.315787,-2.133668 0.450616,-2.504532 0.153172,-0.421316 0.07602,-0.674297 -0.205641,-0.674297 -0.247932,0 -0.652469,-0.293931 -0.898971,-0.65318 -0.384586,-0.560491 -0.484848,-0.369119 -0.706536,1.348594 -0.29016,2.248252 -0.720261,2.662247 -0.756977,0.728629 -0.01327,-0.698982 -0.144055,-1.603914 -0.290628,-2.010959 -0.224429,-0.623258 -0.319626,-0.650552 -0.603078,-0.172911 -0.580769,0.978647 -0.380667,-0.189976 0.556268,-3.248677 0.925209,-3.020421 1.180488,-5.624311 0.551393,-5.624311 -0.196831,0 -0.259137,-0.497626 -0.141073,-1.126712 0.227413,-1.21173 -0.676496,-3.12904 -1.117047,-2.3694 -0.13193,0.22749 -0.123779,0.61379 0.01812,0.85846 0.15017,0.25893 0.100119,0.34087 -0.119761,0.19605 -0.516136,-0.33994 -1.603478,2.207367 -1.300909,3.047626 0.166293,0.46181 0.109366,0.587962 -0.179474,0.397726 -0.232658,-0.153233 -0.423014,-0.09498 -0.423014,0.129448 0,0.493652 0.368911,0.513287 1.047003,0.05573 0.285909,-0.192925 0.405246,-0.616574 0.275318,-0.977394 -0.134516,-0.373563 -0.08156,-0.539542 0.128098,-0.40146 0.196585,0.129475 0.357428,0.05178 0.357428,-0.172644 0,-0.224429 -0.162706,-0.408052 -0.36157,-0.408052 -0.198863,0 -0.361569,-0.191942 -0.361569,-0.42654 0,-0.23459 0.25251,-0.32327 0.561133,-0.19707 0.308624,0.12621 0.488407,0.10141 0.39952,-0.0551 -0.08889,-0.15651 0.06537,-0.50814 0.34279,-0.7814 0.756814,-0.74545 0.66001,0.20152 -0.218735,2.139753 -0.819721,1.80804 -0.87536,2.351893 -0.324668,3.173487 0.308079,0.45963 0.348814,0.391994 0.198951,-0.330337 -0.256689,-1.237229 0.388014,-3.012081 0.897066,-2.469601 0.269497,0.287194 0.104881,1.266461 -0.55579,3.306295 -0.516284,1.594034 -0.938698,3.259248 -0.938698,3.700475 0,0.45622 -0.233923,0.802232 -0.542354,0.802232 -0.695265,0 -0.701591,-1.34871 -0.01604,-3.41937 0.324637,-0.98054 0.384016,-1.589694 0.154959,-1.589694 -0.615779,0 -1.404412,-1.050665 -1.404412,-1.871043 0,-0.423582 0.571048,-1.937659 1.268996,-3.364617 1.216436,-2.487 1.24453,-2.63426 0.678298,-3.55518 -0.520472,-0.84651 -0.630488,-0.88495 -0.925393,-0.32338 -0.590915,1.12525 -1.118402,0.72835 -0.874366,-0.65789 0.291911,-1.6582 -0.469064,-2.52023 -1.321431,-1.49692 -1.020652,1.22534 -2.822017,5.1411 -3.732648,8.11393 -0.726179,2.370672 -0.852253,3.35587 -0.660534,5.161714 0.130318,1.227504 0.389597,2.231825 0.576174,2.231825 0.186578,0 0.236257,-0.390129 0.110397,-0.866954 -0.179137,-0.67867 -0.146368,-0.741431 0.150883,-0.288984 0.208845,0.317883 0.382209,1.314879 0.385255,2.215547 0.0048,1.406072 0.113136,1.637579 0.766652,1.637579 0.667186,0 0.744453,0.186209 0.626093,1.508839 -0.07426,0.829861 -0.01,1.426496 0.142807,1.325854 0.152807,-0.100641 0.289267,0.217377 0.303244,0.706709 0.02421,0.847697 0.04146,0.853317 0.365454,0.119068 0.253,-0.573368 0.288577,-0.400768 0.138988,0.674297 -0.119736,0.860514 -0.05278,1.444922 0.165552,1.444922 0.201633,0 0.272951,0.260086 0.158485,0.577969 -0.114467,0.317883 -0.04157,0.577969 0.162002,0.577969 0.203567,0 0.452189,-0.216738 0.552492,-0.481641 0.100304,-0.264902 0.198698,0.03853 0.218653,0.674297 0.02087,0.664751 0.724373,2.287914 1.655607,3.819874 1.369223,2.252499 1.619325,2.505418 1.619325,1.637579 0,-0.655444 0.196001,-1.026357 0.542354,-1.026357 0.41564,0 0.542354,0.489817 0.542354,2.096478 0,2.862129 0.65312,3.117726 0.825155,0.322923 l 0.137068,-2.226745 0.03276,2.311876 c 0.04884,3.446636 0.195289,3.446636 0.451297,0 l 0.22896,-3.082501 0.0663,3.532627 c 0.07201,3.836446 0.418171,5.652628 0.772797,4.054556 0.334182,-1.505937 0.914466,-1.128045 1.035116,0.674089 0.1439,2.149428 2.185042,5.259991 2.640504,4.02395 0.147105,-0.399214 0.260026,-1.766188 0.250933,-3.03772 z m -3.881361,-7.288831 c -0.0157,-0.406181 0.06976,-0.633759 0.189903,-0.505723 0.120146,0.128039 0.132992,0.460371 0.02855,0.738517 -0.115422,0.307376 -0.201099,0.216076 -0.218448,-0.232794 z m 0.751683,-0.224765 c 0,-0.529804 0.08207,-0.746543 0.182371,-0.48164 0.100304,0.264902 0.100304,0.698379 0,0.963281 -0.100304,0.264903 -0.182371,0.04816 -0.182371,-0.481641 z M 32.81291,68.962662 c -0.117467,-0.326216 -0.04657,-1.146898 0.15756,-1.823739 0.310085,-1.028185 0.377208,-1.084266 0.408048,-0.340925 0.0203,0.489331 0.17928,0.795927 0.353285,0.681324 0.174006,-0.114603 0.316374,0.211712 0.316374,0.725143 0,1.076513 -0.917793,1.639847 -1.235267,0.758197 z m -2.971231,-0.421984 c -0.02307,-0.247569 -0.147242,-0.767741 -0.275943,-1.155937 -0.181558,-0.547634 -0.133444,-0.607044 0.214693,-0.265098 0.246781,0.242392 0.370955,0.762564 0.275943,1.155938 -0.09501,0.393373 -0.191625,0.512667 -0.214693,0.265097 z m -1.48822,-0.70581 c 0,-0.317883 0.1576,-0.577969 0.350222,-0.577969 0.192622,0 0.256567,0.260086 0.1421,0.577969 -0.114466,0.317883 -0.272066,0.577969 -0.350221,0.577969 -0.07816,0 -0.142101,-0.260086 -0.142101,-0.577969 z m 9.979575,20.812561 c 0.07229,-0.524896 -0.891621,-1.70717 -0.985537,-1.208795 -0.172619,0.916011 -0.138991,1.261428 0.164929,1.694069 0.382346,0.544277 0.705097,0.353416 0.820608,-0.485274 z m -0.606436,0.475961 c -0.19522,-0.679769 -0.229071,-1.461641 -0.05526,-1.276421 0.26386,0.281189 0.448116,1.372749 0.231719,1.372749 -0.08183,0 -0.16124,-0.04335 -0.176456,-0.09633 z m 9.816547,-1.05961 c 0.184285,0 0.33506,-0.260086 0.33506,-0.577969 0,-0.890503 -0.612123,-0.684049 -0.856815,0.288985 -0.119911,0.476824 -0.201365,1.040344 -0.181012,1.252266 0.02036,0.211922 0.111414,0.08188 0.202359,-0.288985 0.09094,-0.370863 0.316127,-0.674297 0.500408,-0.674297 z m -5.20081,-1.059609 c -0.09095,-0.370864 -0.165356,-0.06743 -0.165356,0.674297 0,0.741726 0.07441,1.04516 0.165356,0.674297 0.09094,-0.370864 0.09094,-0.977731 0,-1.348594 z m -0.75393,0.393338 c -0.120149,-0.128035 -0.205602,0.09954 -0.189903,0.505723 0.01736,0.44887 0.103026,0.54017 0.218446,0.232794 0.104446,-0.278145 0.0916,-0.610477 -0.02853,-0.738517 z m 3.658804,-2.512558 c -0.08021,-0.688746 -0.145832,-0.125226 -0.145832,1.252266 0,1.377493 0.06562,1.941012 0.145832,1.252266 0.0802,-0.688746 0.0802,-1.815786 0,-2.504532 z m -2.182548,0.188164 c -0.0905,-0.368394 -0.16126,0.02377 -0.157247,0.871446 0.004,0.847688 0.07806,1.149098 0.164543,0.669804 0.08648,-0.479294 0.0832,-1.172857 -0.0073,-1.54125 z m -5.432507,-0.188164 c -0.100304,-0.264902 -0.182371,-0.04816 -0.182371,0.481641 0,0.529805 0.08207,0.746543 0.182371,0.481641 0.100303,-0.264903 0.100303,-0.698379 0,-0.963282 z m 3.956251,0.200683 c -0.120149,-0.128036 -0.205602,0.09954 -0.189903,0.505722 0.01736,0.44887 0.103026,0.54017 0.218446,0.232795 0.104446,-0.278146 0.0916,-0.610478 -0.02853,-0.738517 z m 0.467694,-5.654837 c -0.324971,-0.318079 -0.373436,-0.248226 -0.197005,0.283948 0.128701,0.388195 0.266744,1.948711 0.306763,3.467814 l 0.07277,2.762002 0.124239,-3.04595 c 0.08241,-2.02048 -0.02086,-3.187981 -0.306763,-3.467814 z m -0.427791,1.786783 c -0.0825,-0.57899 -0.148341,-0.01237 -0.146312,1.259167 0.0022,1.271532 0.06953,1.745251 0.15,1.052709 0.08047,-0.692542 0.07881,-1.732886 -0.0037,-2.311876 z m -0.800706,2.222449 c -0.122905,-0.211922 -0.295214,-0.385313 -0.382909,-0.385313 -0.08769,0 -0.159445,0.173391 -0.159445,0.385313 0,0.211922 0.172309,0.385312 0.382909,0.385312 0.2106,0 0.28235,-0.17339 0.159445,-0.385312 z m -0.305186,-2.415537 c -0.09905,-0.260868 -0.174049,0.04586 -0.16668,0.68163 0.0074,0.635766 0.0884,0.849206 0.180076,0.474308 0.09167,-0.374897 0.08564,-0.895069 -0.01338,-1.155938 z M 34.025427,78.5228 c -0.0905,-0.368393 -0.161259,0.02377 -0.157246,0.871446 0.004,0.847688 0.07806,1.149099 0.164542,0.669805 0.08648,-0.479295 0.0832,-1.172857 -0.0073,-1.541251 z m -1.932614,0.168382 c 0.13085,0.139444 0.237909,0.148172 0.237909,0.01938 0,-0.59747 -0.690685,-0.589178 -1.134132,0.0136 -0.435438,0.591905 -0.425794,0.614269 0.08269,0.191758 0.316592,-0.263064 0.682681,-0.364209 0.813531,-0.224768 z m 9.265645,0.157203 c -0.0063,-0.123619 -0.251233,-0.562571 -0.544238,-0.975449 -0.512821,-0.722619 -0.529905,-0.714216 -0.45698,0.224764 0.04166,0.536498 0.286573,0.975454 0.544234,0.975454 0.257665,0 0.463308,-0.101145 0.456984,-0.224769 z M 31.095143,77.058034 c -0.308565,-0.240446 -0.446486,-0.559235 -0.306491,-0.708424 0.139994,-0.149189 -0.05769,-0.143571 -0.439301,0.01248 -0.40888,0.167207 -0.5148,0.347333 -0.257903,0.438586 0.239763,0.08517 0.365512,0.276281 0.279441,0.424692 -0.08607,0.148407 0.167908,0.269834 0.564395,0.269834 0.626205,0 0.647201,-0.05742 0.159859,-0.437172 z m -13.159396,-0.04622 c -0.26101,-0.111305 -0.57287,-0.09762 -0.69301,0.0304 -0.12015,0.128036 0.0934,0.219104 0.47456,0.202374 0.4212,-0.01849 0.50688,-0.109791 0.21845,-0.232794 z m 22.443798,-2.091319 c -0.268949,-1.096008 -0.456528,-0.877623 -0.450331,0.524295 0.0038,0.851402 0.105322,1.084435 0.317252,0.727971 0.171445,-0.28836 0.231332,-0.85188 0.133079,-1.252266 z m -0.26298,-2.558206 c -0.302294,-1.753058 -0.918166,-2.586536 -0.91109,-1.233 0.0073,1.394631 0.390958,2.677922 0.800613,2.677922 0.218832,0 0.262087,-0.565723 0.110477,-1.444922 z m -1.420714,-0.762598 c -0.12015,-0.128036 -0.205603,0.09954 -0.189904,0.505723 0.01735,0.448867 0.103026,0.54017 0.218446,0.232793 0.104446,-0.278148 0.0916,-0.61048 -0.02853,-0.738516 z m 0,-1.541251 c -0.12015,-0.128035 -0.205603,0.09954 -0.189904,0.505723 0.01735,0.448868 0.103026,0.54017 0.218446,0.232793 0.104446,-0.278147 0.0916,-0.610479 -0.02853,-0.738516 z m -1.78913,-1.749267 c -0.09904,-0.260869 -0.174048,0.04586 -0.166679,0.681631 0.0074,0.635765 0.0884,0.849204 0.180077,0.474307 0.09167,-0.374896 0.08564,-0.895068 -0.0134,-1.155938 z M 17.326797,68.029596 c -0.12224,-0.210782 -0.57929,-0.569201 -1.01566,-0.796485 -0.68351,-0.356014 -0.6682,-0.304124 0.11053,0.374672 1.0123,0.882382 1.23147,0.984523 0.90513,0.421813 z m 7.772538,-3.299969 c 0,-0.09345 -0.162706,-0.169917 -0.36157,-0.169917 -0.198863,0 -0.361569,0.183624 -0.361569,0.408053 0,0.224429 0.162706,0.300891 0.361569,0.169916 0.198864,-0.130975 0.36157,-0.314598 0.36157,-0.408052 z m 9.21023,-0.572108 c -0.128288,-0.221205 -0.04864,-0.639245 0.177003,-0.928978 0.243655,-0.312865 0.272988,-0.617192 0.07223,-0.749413 -0.185911,-0.122444 -0.430022,0.152296 -0.54247,0.610533 -0.195788,0.797861 -0.03771,1.470049 0.345699,1.470049 0.09943,0 0.07582,-0.180986 -0.05247,-0.402191 z m 0.761982,-2.511735 c -0.676652,-0.721085 -0.734255,-0.442175 -0.149257,0.722684 0.260198,0.518109 0.479413,0.657533 0.571409,0.363421 0.08209,-0.262445 -0.107877,-0.751193 -0.422152,-1.086105 z M 32.54917,60.81094 c -0.120146,-0.128036 -0.205603,0.09954 -0.189903,0.505722 0.01735,0.448868 0.103026,0.54017 0.218448,0.232794 0.104447,-0.278148 0.0916,-0.61048 -0.02855,-0.738516 z M 16.104237,59.675874 c -0.42623,-0.781112 -0.52916,-0.531098 -0.18025,0.437846 0.124,0.344355 0.30162,0.544931 0.39471,0.445725 0.0931,-0.09921 -0.003,-0.496813 -0.21446,-0.883571 z m 18.023258,-2.62976 c 0,-0.211922 -0.157723,-0.125226 -0.350496,0.192657 -0.192772,0.317883 -0.350495,0.751359 -0.350495,0.963281 0,0.211922 0.157723,0.125227 0.350495,-0.192656 0.192773,-0.317883 0.350496,-0.75136 0.350496,-0.963282 z M 23.871506,56.572501 c -0.120147,-0.128036 -0.205603,0.09954 -0.189904,0.505723 0.01735,0.448867 0.103026,0.540169 0.218449,0.232793 0.104446,-0.278148 0.0916,-0.61048 -0.02855,-0.738516 z m -0.723139,-2.69719 c -0.120147,-0.12803 -0.205603,0.0995 -0.189903,0.50572 0.01735,0.44887 0.103025,0.54017 0.218448,0.2328 0.104447,-0.27815 0.0916,-0.61048 -0.02855,-0.73852 z m 3.397245,-0.87498 c 0,-0.21192 -0.172308,-0.38531 -0.382908,-0.38531 -0.210599,0 -0.28235,0.17339 -0.159446,0.38531 0.122905,0.21192 0.295213,0.38531 0.382908,0.38531 0.0877,0 0.159446,-0.17339 0.159446,-0.38531 z m 0.820323,-1.89567 c 0.105032,-0.42802 -0.02395,-0.83698 -0.299511,-0.94967 -0.326561,-0.13354 -0.411185,0.004 -0.260169,0.42364 0.149074,0.41399 0.08255,0.52852 -0.199198,0.34295 -0.477883,-0.31474 -0.518549,-0.17615 -0.204342,0.69643 0.266621,0.74043 0.714071,0.50196 0.96322,-0.51335 z m 0.190744,-1.93993 c -0.242736,-0.41421 -0.51136,-0.67848 -0.596942,-0.58728 -0.154967,0.16514 0.633011,1.34038 0.898704,1.34038 0.07677,0 -0.05903,-0.3389 -0.301762,-0.7531 z M 28.497,48.826111 c 0.10242,-0.1766 -0.04353,-0.32109 -0.324326,-0.32109 -0.280799,0 -0.426745,0.14449 -0.324325,0.32109 0.10242,0.1766 0.248367,0.32109 0.324325,0.32109 0.07596,0 0.221906,-0.14449 0.324326,-0.32109 z m -7.374928,-1.41281 c 0.247562,-0.31789 0.368761,-0.57797 0.269329,-0.57797 -0.09943,0 -0.383336,0.26008 -0.630898,0.57797 -0.247563,0.31788 -0.368761,0.57797 -0.26933,0.57797 0.09943,0 0.383336,-0.26009 0.630899,-0.57797 z m 8.677665,-0.40806 c 0,-0.0934 -0.162707,-0.16991 -0.36157,-0.16991 -0.198863,0 -0.361569,0.18362 -0.361569,0.40805 0,0.22443 0.162706,0.30089 0.361569,0.16992 0.198863,-0.13098 0.36157,-0.3146 0.36157,-0.40806 z m -1.016914,-0.81844 c -0.261008,-0.1113 -0.572862,-0.0976 -0.693008,0.0304 -0.120147,0.12804 0.0934,0.21911 0.474559,0.20238 0.421208,-0.0185 0.506885,-0.10979 0.218449,-0.2328 z M 61.29049,110.84571 c -0.969653,-0.2884 -1.784786,-1.39391 -1.360871,-1.84566 0.151157,-0.16108 0.590638,-0.0827 0.97662,0.17418 0.385983,0.25688 1.110763,0.46705 1.610618,0.46705 0.566803,0 0.90883,0.21751 0.90883,0.57797 0,0.31788 -0.06805,0.57797 -0.151212,0.57797 -0.08317,0 -0.367904,0.0691 -0.632746,0.15358 -0.264846,0.0845 -0.872901,0.0372 -1.351239,-0.10509 z m 0.749349,-6.804 c -0.661784,-1.54783 -0.944796,-4.03324 -0.459262,-4.03324 0.229202,0 0.572162,0.47682 0.762134,1.05961 0.189972,0.58278 0.59271,1.55048 0.894974,2.15044 0.717289,1.42374 0.693187,1.79901 -0.115528,1.79901 -0.365807,0 -0.852848,-0.43912 -1.082318,-0.97582 z M 52.819654,93.586593 c -0.132577,-0.141279 -0.241048,-0.921537 -0.241048,-1.733907 0,-1.056041 0.154586,-1.47703 0.542354,-1.47703 0.401744,0 0.542354,0.449533 0.542354,1.733907 0,1.618078 -0.269145,2.089277 -0.84366,1.47703 z m 0.338971,-1.565332 c -0.12015,-0.128036 -0.205603,0.09954 -0.189904,0.505722 0.01736,0.44887 0.103026,0.54017 0.218446,0.232795 0.104447,-0.27815 0.0916,-0.610482 -0.02853,-0.738517 z M 42.334142,76.247525 c -0.132576,-0.141278 -0.241047,-0.834841 -0.241047,-1.541249 0,-0.884792 0.168733,-1.284375 0.542354,-1.284375 0.298295,0 0.542354,0.330548 0.542354,0.734552 0,0.546658 0.186349,0.68262 0.728511,0.531532 0.590921,-0.164677 0.681262,-0.0669 0.478335,0.517713 -0.391189,1.126974 -1.460697,1.670372 -2.050507,1.041827 z"
       id="path2989"
       style="fill:#000000;fill-opacity:1;stroke:#000000;stroke-width:0.37325224;stroke-opacity:1" />
  </g>
  <rect
     width="85"
     height="34"
     ry="7.8461533"
     x="0"
     y="1"
     id="rect2990"
     style="fill:#ffffff;fill-opacity:1;fill-rule:nonzero;stroke:none" />
</svg>
