<?xml version="1.0" encoding="UTF-8" standalone="no"?>
<!-- Created with Inkscape (http://www.inkscape.org/) -->

<svg
   xmlns:dc="http://purl.org/dc/elements/1.1/"
   xmlns:cc="http://creativecommons.org/ns#"
   xmlns:rdf="http://www.w3.org/1999/02/22-rdf-syntax-ns#"
   xmlns:svg="http://www.w3.org/2000/svg"
   xmlns="http://www.w3.org/2000/svg"
   version="1.1"
   width="85"
   height="84.999992"
   id="svg2">
  <metadata
     id="metadata8">
    <rdf:RDF>
      <cc:Work
         rdf:about="">
        <dc:format>image/svg+xml</dc:format>
        <dc:type
           rdf:resource="http://purl.org/dc/dcmitype/StillImage" />
        <dc:title></dc:title>
      </cc:Work>
    </rdf:RDF>
  </metadata>
  <defs
     id="defs6" />
  <g
     transform="matrix(0.43008213,0,0,0.43008213,-2.8306605,-2.6586264)"
     id="g3767">
    <path
       d="M 184.8,125.6 A 89.199997,78.400002 0 1 1 6.4000015,125.6 89.199997,78.400002 0 1 1 184.8,125.6 z"
       transform="matrix(1.1078289,0,0,1.2604378,-0.50843237,-53.310989)"
       id="path2991"
       style="fill:#d5d5ff;fill-opacity:1;fill-rule:nonzero;stroke:none" />
    <g
       transform="matrix(0.84069841,0,0,0.89590474,14.835714,15.603412)"
       id="g3763">
      <path
         d="M 126.19737,161.21045 98.619315,162.81069 80.233943,156.80981 72.9564,148.80865 65.295828,143.20783 51.5068,136.00678 44.995314,119.6044 31.589314,90.400146 45.761371,92.400437 31.589314,79.998631 36.568685,61.195894 36.185656,50.79438 42.697142,33.991934 51.889828,17.189488 c 0,0 7.660572,-1.200174 9.192686,-1.200174 1.532114,0 13.406,4.40064 13.406,4.40064 l 7.277543,7.601107 3.830286,8.801281 4.213314,21.203086 c 0,0 -0.766057,5.600816 0.383029,7.601107 1.149086,2.000291 10.724804,13.60198 10.724804,15.202213 0,1.600233 2.29817,16.802446 2.29817,18.402679 0,1.600233 2.29817,11.201633 4.59634,12.401803 2.29817,1.20018 18.7684,18.40268 18.7684,18.40268 l 3.83029,27.20396 -2.29817,4.40064"
         id="path3761"
         style="fill:#ffffff;fill-opacity:1;stroke:#ffffff;stroke-width:0.97862703px;stroke-linecap:butt;stroke-linejoin:miter;stroke-opacity:1" />
      <path
         d="m 174.6,185.79574 c -3.575,-1.28121 -9.29894,-3.51439 -12.71987,-4.96261 -3.42092,-1.44822 -6.99242,-2.63313 -7.93666,-2.63313 -0.94424,0 -6.15283,2.07363 -11.57465,4.60807 -7.34679,3.43426 -10.54702,4.44585 -12.56334,3.97124 -1.48801,-0.35025 -5.85548,-0.68371 -9.70548,-0.74103 l -7,-0.1042 5,-0.73824 5,-0.73824 -6.22903,0.16726 c -3.42597,0.092 -5.73755,-0.1365 -5.13685,-0.50775 0.73787,-0.45603 0.64997,-0.8346 -0.27097,-1.16695 -0.74973,-0.27057 1.61301,-0.26836 5.25055,0.005 3.9157,0.29417 7.38319,0.0499 8.5,-0.5987 1.71118,-0.99385 1.72383,-1.09839 0.1363,-1.12597 -3.663,-0.0636 -1.71498,-2.86053 2.48679,-3.57042 2.33023,-0.39369 5.87846,-1.29501 7.88495,-2.00294 2.38079,-0.83999 3.98838,-0.94693 4.6275,-0.30781 0.63911,0.63911 1.58611,0.37256 2.72594,-0.76728 1.66215,-1.66215 1.65947,-1.81033 -0.0554,-3.06429 -2.86271,-2.09326 -6.84646,-1.5682 -16.55782,2.18233 -10.24244,3.95564 -11.48181,4.1035 -16.57112,1.97705 -2.65344,-1.10868 -3.34536,-1.82252 -2.54364,-2.62424 0.78912,-0.78912 1.96519,-0.80012 4.14905,-0.0388 3.04606,1.06186 7.2666,0.40629 11.60376,-1.80239 1.1,-0.56017 4.475,-1.88406 7.5,-2.94198 4.17337,-1.45953 4.85106,-1.94111 2.8096,-1.99655 -1.47972,-0.0402 -5.89275,1.08208 -9.80672,2.49393 -5.15097,1.85806 -7.99822,2.36897 -10.3096,1.84995 -1.7563,-0.39437 -2.62798,-0.91295 -1.93705,-1.15241 0.69093,-0.23945 1.00187,-0.84693 0.69098,-1.34995 -0.31088,-0.50302 0.72394,-0.91459 2.2996,-0.91459 3.01934,0 15.66291,-3.92361 14.94784,-4.63868 -0.2295,-0.2295 -1.63398,0.0453 -3.12106,0.6107 -1.48708,0.56539 -5.32306,1.02798 -8.52438,1.02798 -5.66454,0 -12.72386,2.32633 -9.89811,3.26183 0.74189,0.24561 0.2987,0.26914 -0.98489,0.0523 -1.5689,-0.26506 -2.10141,-0.0183 -1.62477,0.75293 0.48135,0.77885 0.0771,0.94664 -1.25908,0.52257 -1.22896,-0.39006 -2.93137,0.13305 -4.53296,1.39286 -2.60071,2.04572 -5.298301,2.51159 -8.167613,1.41053 -2.135593,-0.8195 -2.013598,-3.36439 0.168213,-3.50901 1.666667,-0.11048 1.666667,-0.13778 0,-0.57333 -0.9625,-0.25152 -1.75,-1.11185 -1.75,-1.91184 0,-1.18927 1.231003,-1.34334 6.75,-0.84481 3.7125,0.33534 7.3125,0.78375 8,0.99646 0.6875,0.21271 1.25,-0.004 1.25,-0.48117 0,-0.47736 -1.9125,-1.09801 -4.25,-1.37922 -2.3375,-0.28122 -6.05,-0.96151 -8.25,-1.51177 -2.2,-0.55026 -7.266912,-1.66405 -11.259805,-2.47509 C 74.866887,158.48681 71.6,156.94729 71.6,155.07756 71.6,154.5949 72.359191,154.2 73.287091,154.2 c 1.326352,0 1.08436,-0.62912 -1.13174,-2.94223 -1.841309,-1.92191 -2.640042,-3.62591 -2.303265,-4.91374 0.355453,-1.35926 -0.06947,-2.12452 -1.368261,-2.46416 -1.185632,-0.31005 -1.883825,0.0286 -1.883825,0.91375 0,1.92244 -1.957005,1.76854 -8.462487,-0.66547 -3.164603,-1.18403 -5.537513,-2.68383 -5.537513,-3.5 0,-1.83232 1.847544,-1.80762 6.377876,0.0853 5.322414,2.22385 4.410236,0.91964 -1.424862,-2.03723 -2.775842,-1.40663 -5.319242,-3.32671 -5.651999,-4.26685 -0.332758,-0.94013 -1.324114,-2.57419 -2.203015,-3.63123 -1.134676,-1.36466 -1.190777,-1.68229 -0.193492,-1.0955 0.955235,0.56206 1.173042,0.45189 0.680902,-0.34441 -0.397984,-0.64395 -1.051498,-0.96818 -1.452254,-0.72049 -1.601956,0.99006 -3.216675,-1.28419 -3.547733,-4.9968 -0.215377,-2.41531 -0.874895,-3.95789 -1.717528,-4.0172 -1.101527,-0.0775 -1.096221,-0.009 0.02725,0.35128 1.082541,0.34728 1.11562,0.62032 0.147629,1.21857 C 41.387827,122.5672 32.6,117.29221 32.6,114.54501 c 0,-1.88994 1.730031,-1.67343 4.950176,0.61951 l 2.758916,1.96452 -0.477822,-2.49956 c -0.295994,-1.54839 0.198869,-3.2473 1.300442,-4.46452 0.978045,-1.08073 1.306664,-1.96496 0.730264,-1.96496 -0.576399,0 -1.332887,0.74241 -1.681085,1.6498 -0.556705,1.45075 -0.931558,1.36939 -3.106989,-0.67432 C 34.543961,106.79873 33.787545,104.2 35.62568,104.2 c 1.358275,0 -1.589057,-5.65627 -3.50646,-6.72931 -0.814453,-0.45579 -1.770713,-2.27815 -2.125022,-4.0497 L 29.35,90.2 35.225,90.18678 41.1,90.17356 33.789175,86.119254 c -6.670665,-3.6993 -8.930375,-6.624006 -4.855459,-6.28435 1.447434,0.120648 1.462478,-0.08779 0.142371,-1.972506 C 27.33073,75.370548 27.13271,72.2 28.72245,72.2 c 0.791988,0 0.767665,-0.427477 -0.0826,-1.452012 -1.38215,-1.665381 -0.48771,-5.54866 1.277557,-5.546625 0.808459,9.32e-4 1.074237,-1.739149 0.840062,-5.5 C 30.556955,56.481077 30.828479,54.2 31.412314,54.2 c 0.586377,0 0.776302,-1.64836 0.46088,-4 -0.480645,-3.583482 -0.314542,-4 1.595157,-4 1.760918,0 2.131669,-0.5961 2.131669,-3.427337 0,-4.265533 5.403096,-14.81559 11.471507,-22.399205 C 49.568453,17.253056 52.275291,13.8 53.086702,12.7 c 1.011895,-1.37179 1.716839,-1.644848 2.244295,-0.869321 0.422952,0.621873 4.931503,1.457146 10.019003,1.856162 6.298527,0.493997 9.25,1.120773 9.25,1.964333 0,0.681368 0.910633,2.062962 2.023629,3.07021 1.551352,1.403954 2.298171,1.556816 3.2,0.654987 1.970029,-1.970029 3.037378,-1.322071 2.495093,1.514706 -0.611806,3.200458 1.821847,7.422454 3.833504,6.650509 1.985363,-0.761856 4.229064,4.277124 2.620648,5.88554 C 87.169303,35.030697 87.300784,36.2 89.084668,36.2 c 1.202888,0 1.398616,1.186208 1.031273,6.25 -0.249367,3.4375 -0.209472,5.4625 0.08866,4.5 0.523119,-1.688877 3.381252,-2.527271 3.409058,-1 0.0075,0.4125 0.284994,1.7625 0.616631,3 0.433398,1.61722 0.171759,2.25 -0.930321,2.25 -0.843314,0 -1.760272,-0.5625 -2.037684,-1.25 -0.827894,-2.051736 -0.612693,5.432506 0.28035,9.75 0.455054,2.2 0.87912,3.4375 0.94237,2.75 C 92.54825,61.7625 93.5,61.2 94.6,61.2 c 1.62577,0 2,0.666667 2,3.562858 0,3.120848 0.27914,3.524045 2.25,3.25 2.10825,-0.293147 2.2297,-3.32e-4 1.92778,4.647749 -0.24088,3.708312 0.0909,5.262672 1.31415,6.157151 1.1409,0.834243 2.03071,4.228861 2.93873,11.211114 l 1.30236,10.014568 4.63349,4.37694 c 2.54842,2.40731 4.63349,5.14254 4.63349,6.07828 0,0.93574 0.60277,1.70134 1.33948,1.70134 0.73672,0 1.91656,1.2375 2.62188,2.75 1.19415,2.56078 1.33307,2.61239 2.01898,0.75 0.63608,-1.72709 0.83463,-1.55808 1.45506,1.23853 0.68758,3.0993 2.5646,5.52955 2.5646,3.32049 0,-0.58246 0.65461,-1.05902 1.45469,-1.05902 0.90747,0 1.68074,1.41065 2.05562,3.75 0.33051,2.0625 1.30628,5.325 2.16838,7.25 2.3666,5.28444 4.32131,15.71078 4.32131,23.04963 0,5.92345 1.04659,8.95037 3.09469,8.95037 0.38208,0 0.30281,-1.6875 -0.17614,-3.75 -0.47896,-2.0625 -0.88157,-5.25 -0.89469,-7.08333 -0.0373,-5.21375 2.26345,-3.313 3.52,2.908 1.04073,5.15249 2.96651,9.92533 4.00474,9.92533 0.26303,0 -0.2028,-1.62996 -1.03518,-3.62212 -2.6388,-6.31553 -1.20146,-28.6555 1.56273,-24.2889 0.76799,1.21318 0.89537,1.21239 0.90854,-0.006 0.008,-0.77916 0.24964,-1.18233 0.53605,-0.89592 0.28641,0.2864 0.0431,2.74778 -0.54063,5.46972 -0.7487,3.49108 -0.74851,5.66983 6.4e-4,7.39593 1.05184,2.42352 1.05821,2.41989 0.66481,-0.37888 -0.21846,-1.5542 -0.0401,-2.4542 0.39635,-2 0.43646,0.4542 1.10667,2.96332 1.48937,5.57582 0.58471,3.9916 0.43818,4.75 -0.91774,4.75 -0.88745,0 -1.61354,0.60523 -1.61354,1.34496 0,1.81684 7.17772,12.78695 9.57749,14.63781 1.83512,1.41536 1.84845,1.39264 0.2931,-0.5 -2.99434,-3.64369 -4.82714,-8.26174 -5.47853,-13.80402 -0.82629,-7.03044 0.34515,-16.93935 1.93701,-16.38477 0.79876,0.27828 1.07056,2.92294 0.85514,8.32058 -0.25341,6.34938 0.10639,8.89757 1.82115,12.89794 4.30808,10.05034 8.60931,13.55573 20.84748,16.99014 9.69303,2.72017 11.14716,3.51834 11.14716,6.11868 0,2.02464 -0.48372,2.37312 -3.25,2.34129 -1.7875,-0.0206 -6.175,-1.08566 -9.75,-2.36687 z M 130.1,185.2 c -0.33992,-0.55 -0.81648,-1 -1.05902,-1 -0.24254,0 -0.44098,0.45 -0.44098,1 0,0.55 0.47656,1 1.05902,1 0.58246,0 0.7809,-0.45 0.44098,-1 z m 50.6875,0.31689 c -0.72188,-0.28887 -1.58438,-0.25335 -1.91667,0.0789 -0.33229,0.33229 0.25834,0.56864 1.3125,0.52522 1.16495,-0.048 1.4019,-0.28494 0.60417,-0.60416 z m -53,-6 c -0.72188,-0.28887 -1.58438,-0.25335 -1.91667,0.0789 -0.33229,0.33229 0.25834,0.56864 1.3125,0.52522 1.16495,-0.048 1.4019,-0.28494 0.60417,-0.60416 z m 21.75724,-7.85104 c 0.61585,0.38061 0.79208,0.0119 0.43682,-0.91391 -0.81581,-2.12596 -1.65326,-1.9489 -3.30167,0.69806 -1.27071,2.04046 -1.25063,2.12557 0.21565,0.91391 0.88927,-0.73485 2.08141,-1.04898 2.6492,-0.69806 z M 149.20131,166.95 c 0.39564,-0.6875 0.3511,-0.9164 -0.099,-0.50868 -0.45007,0.40773 -1.53472,0.18273 -2.41032,-0.5 -1.40859,-1.0983 -1.43388,-1.03969 -0.21957,0.50868 1.63578,2.08577 1.79908,2.11569 2.72887,0.5 z m -10.07432,-2.70633 c -0.32507,-0.52598 -1.25163,-0.70283 -2.05902,-0.39301 -2.06711,0.79323 -1.82352,1.34934 0.59105,1.34934 1.13246,0 1.79305,-0.43035 1.46797,-0.95633 z m -14.9135,-4.32383 c 0.41425,-0.41424 0.28973,-1.21662 -0.27671,-1.78306 -0.69697,-0.69697 -2.99567,-0.7133 -7.11117,-0.0505 -3.4794,0.56035 -7.28876,0.61704 -8.90345,0.13251 -2.79785,-0.83957 -2.80062,-0.84846 -0.32216,-1.0325 l 2.5,-0.18563 -2.5,-0.80066 c -2.20098,-0.70488 -2.02156,-0.82201 1.5,-0.97927 3.89435,-0.17391 3.92737,-0.20515 1.25,-1.18301 -1.5125,-0.55241 -2.75,-1.69814 -2.75,-2.54605 0,-1.2055 0.70868,-1.40045 3.25,-0.89403 3.13027,0.62378 3.17046,0.5918 1.09074,-0.86815 -1.40068,-0.98326 -3.23502,-1.30063 -5.22135,-0.90337 -2.63218,0.52644 -2.92007,0.8778 -2.0505,2.5026 0.83963,1.56887 0.56872,2.05856 -1.59375,2.88073 -3.90756,1.48565 -5.60536,1.20857 -6.18539,-1.00945 -0.42364,-1.61998 -1.308386,-1.97752 -4.656381,-1.88169 -3.760804,0.10766 -3.864062,0.17595 -1.14558,0.75771 1.807254,0.38675 3.130237,1.37907 3.348308,2.51142 0.319144,1.65718 -0.08114,1.79363 -3.487788,1.18898 C 84.920271,154.70648 83.6,154.16258 83.6,152.74924 c 0,-1.28593 -3.004544,-2.53982 -6,-2.50398 -0.989566,0.0118 -0.545229,0.85791 1.305764,2.48634 1.54317,1.35762 3.461776,2.4684 4.263569,2.4684 0.801792,0 2.239199,0.41261 3.194236,0.91691 0.955037,0.5043 4.436431,1.66814 7.736431,2.58632 3.3,0.91818 6.45,1.84419 7,2.05779 1.76932,0.68715 22.33357,-0.0613 23.11349,-0.84118 z m 7.09224,-7.96984 c -0.23835,-1.2375 -0.43337,-0.225 -0.43337,2.25 0,2.475 0.19502,3.4875 0.43337,2.25 0.23836,-1.2375 0.23836,-3.2625 0,-4.5 z m -49.789063,4.96703 c -0.229167,-0.15563 -1.214468,-0.89428 -2.189559,-1.64144 -1.543478,-1.18269 -1.691385,-1.14607 -1.143011,0.28297 0.346434,0.90279 1.331736,1.64144 2.189558,1.64144 0.857823,0 1.372178,-0.12734 1.143012,-0.28297 z M 152.30573,150.95 c -0.23835,-1.2375 -0.43337,-0.225 -0.43337,2.25 0,2.475 0.19502,3.4875 0.43337,2.25 0.23836,-1.2375 0.23836,-3.2625 0,-4.5 z m -22.98948,-2.5 c -0.22912,-1.5125 -0.41659,-0.275 -0.41659,2.75 0,3.025 0.18747,4.2625 0.41659,2.75 0.22913,-1.5125 0.22913,-3.9875 0,-5.5 z m -12.52875,6.06689 c -0.72187,-0.28887 -1.58437,-0.25335 -1.91667,0.0789 -0.33229,0.33229 0.25834,0.56864 1.3125,0.52522 1.16495,-0.048 1.4019,-0.28494 0.60417,-0.60416 z m 10.67059,-5.06689 -0.1419,-4.75 -0.71619,4 -0.71619,4 -0.1419,-4.71862 c -0.1023,-3.40143 0.20702,-4.58769 1.10809,-4.2496 1.47304,0.55269 3.86278,-4.07431 3.11318,-6.02774 -0.2848,-0.74217 -1.15802,-1.59507 -1.9405,-1.89534 -0.78247,-0.30026 -1.42268,-1.6585 -1.42268,-3.0183 0,-1.3598 -0.38499,-2.71031 -0.85554,-3.00112 -0.47055,-0.29082 -0.64309,0.58263 -0.38343,1.94098 0.56863,2.97459 -1.21449,3.23055 -4.56188,0.65484 -1.74923,-1.34596 -2.46762,-3.19868 -2.99644,-7.72776 l -0.69559,-5.95734 -0.50356,5.42236 c -0.2838,3.05602 -1.04906,5.6017 -1.75356,5.83333 -0.92566,0.30434 -1.25,-1.54136 -1.25,-7.11334 0,-8.26176 -1.5756,-11.18736 -2.37595,-4.4117 -0.27737,2.34814 -0.9392,7.86935 -1.47074,12.26935 l -0.96644,8 5.15656,4.82995 c 4.78914,4.4858 12.50151,10.67005 13.30661,10.67005 0.19248,0 0.2861,-2.1375 0.20805,-4.75 z M 124.6,139.2 c 0,-1.1 0.3949,-2 0.87756,-2 1.31134,0 3.20413,2.58498 2.4471,3.34201 C 126.55562,141.91105 124.6,141.12166 124.6,139.2 z m -22.75,11.33772 c -0.6875,-0.27741 -1.8125,-0.27741 -2.5,0 -0.6875,0.27741 -0.125,0.50439 1.25,0.50439 1.375,0 1.9375,-0.22698 1.25,-0.50439 z M 134.26228,147.95 c -0.27741,-0.6875 -0.50439,-0.125 -0.50439,1.25 0,1.375 0.22698,1.9375 0.50439,1.25 0.27741,-0.6875 0.27741,-1.8125 0,-2.5 z m 9.94189,0.52083 c -0.3323,-0.33229 -0.56864,0.25834 -0.52522,1.3125 0.048,1.16495 0.28494,1.4019 0.60416,0.60417 0.28887,-0.72188 0.25335,-1.58438 -0.0789,-1.91667 z M 116.6,149.2 c 0,-0.55 -0.7875,-0.99311 -1.75,-0.98469 -1.49555,0.0131 -1.5319,0.15626 -0.25,0.98469 1.88721,1.21961 2,1.21961 2,0 z m -17.8125,-0.68311 c -0.72187,-0.28887 -1.58437,-0.25335 -1.91667,0.0789 -0.33229,0.33229 0.25834,0.56864 1.3125,0.52522 1.16495,-0.048 1.4019,-0.28494 0.60417,-0.60416 z M 132.6,147.64098 c 0,-0.24254 -0.45,-0.44098 -1,-0.44098 -0.55,0 -1,0.47656 -1,1.05902 0,0.58246 0.45,0.7809 1,0.44098 0.55,-0.33992 1,-0.81648 1,-1.05902 z m -51.75,-1.10326 c -0.6875,-0.27741 -1.8125,-0.27741 -2.5,0 -0.6875,0.27741 -0.125,0.50439 1.25,0.50439 1.375,0 1.9375,-0.22698 1.25,-0.50439 z M 98.1,146.2 c -1.1,-0.47269 -4.475,-0.82347 -7.5,-0.77952 l -5.5,0.0799 4.5,0.69962 c 2.475,0.38479 5.85,0.73557 7.5,0.77952 2.52839,0.0674 2.68559,-0.0552 1,-0.77952 z m 46.10417,-2.72917 c -0.3323,-0.33229 -0.56864,0.25834 -0.52522,1.3125 0.048,1.16495 0.28494,1.4019 0.60416,0.60417 0.28887,-0.72188 0.25335,-1.58438 -0.0789,-1.91667 z m 9,0 c -0.3323,-0.33229 -0.56864,0.25834 -0.52522,1.3125 0.048,1.16495 0.28494,1.4019 0.60416,0.60417 0.28887,-0.72188 0.25335,-1.58438 -0.0789,-1.91667 z M 112.6,144.87431 c 0,-0.17912 -1.20136,-1.41662 -2.6697,-2.75 l -2.6697,-2.42431 1.9197,2.71858 c 1.63035,2.3088 3.4197,3.59377 3.4197,2.45573 z M 130.8,142 c -0.93333,-0.93333 -1.2,-0.66667 -1.2,1.2 0,1.86667 0.26667,2.13333 1.2,1.2 0.93333,-0.93333 0.93333,-1.46667 0,-2.4 z m -44.0125,1.51689 c -0.721875,-0.28887 -1.584375,-0.25335 -1.916667,0.0789 -0.332291,0.33229 0.258334,0.56864 1.3125,0.52522 1.164943,-0.048 1.4019,-0.28494 0.604167,-0.60416 z m 15.70576,-2.85411 c -1.69578,-1.67874 -4.35308,-2.67869 -9.118035,-3.43115 -8.497387,-1.34187 -12.425238,-2.78162 -11.12794,-4.07892 0.630618,-0.63061 2.84709,-0.61754 6.299329,0.0372 2.929501,0.55556 5.756848,1.01012 6.282994,1.01012 0.526146,0 -0.885275,-2.19995 -3.13649,-4.88878 -4.030003,-4.8134 -5.402823,-7.44307 -2.725797,-5.22133 1.03621,0.85997 1.653371,0.7901 2.548559,-0.28853 0.7422,-0.8943 0.817195,-1.64829 0.201777,-2.02864 -0.538703,-0.33294 -1.237341,-0.18808 -1.552529,0.3219 -0.315188,0.50999 -1.133783,0.83909 -1.819099,0.73133 C 86.306467,122.50527 76.6,116.94728 76.6,116.10009 c 0,-1.53459 2.194482,-2.10392 3.337132,-0.86578 0.915752,0.99228 0.737857,1.10993 -0.837132,0.55362 -1.525904,-0.53896 -1.724344,-0.42857 -0.837132,0.46569 2.255671,2.27361 3.476011,-0.0462 1.511762,-2.87383 -3.847117,-5.53803 -10.224906,-18.60639 -9.721175,-19.91909 0.288,-0.750517 0.147582,-1.132161 -0.31204,-0.8481 -0.928212,0.57367 -6.262877,-9.747422 -8.163092,-15.793308 -0.670836,-2.13439 -2.758597,-5.584081 -4.639468,-7.66598 -2.030897,-2.24796 -2.997206,-4.046429 -2.37931,-4.428309 0.57225,-0.35367 1.602955,-0.305098 2.290455,0.107938 0.97763,0.587342 0.991459,0.431116 0.06347,-0.716974 -0.652593,-0.807372 -1.050357,-2.70849 -0.883918,-4.224706 0.166438,-1.516217 0.06678,-2.520925 -0.221457,-2.232685 -0.28824,0.28824 -1.206567,-0.03452 -2.040727,-0.717252 -1.088121,-0.890585 -0.99527,-0.393666 0.328613,1.758676 l 1.845268,3 -3.36934,-3.217949 c -3.717172,-3.55015 -3.414393,-5.260323 0.606927,-3.428086 2.946161,1.34236 2.970057,2.743762 -0.21533,-12.62841 -1.872699,-9.037353 -1.464348,-10.385847 2.886498,-9.532052 2.20331,0.432371 2.730184,1.063167 2.65032,3.173074 L 58.40064,38.7 57.684775,36.2 56.968911,33.7 56.423127,36.45 c -0.300181,1.5125 -0.158186,2.75 0.315545,2.75 0.47373,0 0.896854,0.7875 0.940275,1.75 0.04342,0.9625 0.228984,1.3 0.412362,0.75 0.183377,-0.55 1.766759,-5.5 3.518625,-11 1.751866,-5.5 3.591304,-10.4275 4.087639,-10.95 1.878045,-1.977049 0.719428,-2.55 -5.15659,-2.55 -3.849532,0 -5.829968,0.370609 -5.430902,1.016312 0.345464,0.558971 1.047021,0.757414 1.559017,0.440983 1.190375,-0.735692 1.181809,1.597734 -0.0128,3.485849 -0.740019,1.169625 -1.401792,1.22047 -3.491648,0.268268 -2.406797,-1.09661 -2.784152,-0.892972 -5.664541,3.056855 -4.651386,6.378363 -7.631491,12.757631 -8.421816,18.027899 -0.408293,2.722692 -1.395734,5.117878 -2.324081,5.637407 -1.450057,0.811493 -1.385361,1.310428 0.636361,4.907597 1.930537,3.434927 2.027202,4.050801 0.67986,4.331548 -1.415455,0.294941 -1.410157,0.524918 0.05361,2.327282 0.89335,1.1 1.339343,1.4375 0.991097,0.75 -0.748114,-1.476912 1.083971,-1.707669 1.98486,-0.25 0.339919,0.55 0.114919,1 -0.5,1 -0.638609,0 -0.787704,0.536013 -0.347693,1.25 0.423688,0.6875 -0.488798,0.426544 -2.027747,-0.579903 -4.258459,-2.784961 -4.211395,-1.310288 0.07399,2.318296 2.72951,2.311171 3.096496,2.892068 1.301452,2.060048 -2.258658,-1.046909 -2.326574,-1.018854 -0.703524,0.290619 0.988062,0.797167 2.675562,1.219507 3.75,0.938535 2.027206,-0.530126 2.722076,1.12938 0.935287,2.233676 C 42.085433,71.636054 35.458528,67.25687 36.247405,65.86459 36.610332,65.224065 36.00307,65.6 34.897934,66.7 c -1.81337,1.804942 -2.071858,4.45867 -0.440945,4.526901 0.353656,0.0148 2.173518,1.296207 4.044137,2.847582 2.515824,2.086468 3.061273,3.030721 2.095491,3.627608 -0.922653,0.57023 -1.065528,0.418426 -0.487081,-0.517521 0.607475,-0.982915 0.352158,-1.145475 -0.990109,-0.630398 -1.104389,0.423793 -2.506591,0.06243 -3.601032,-0.928023 -2.762036,-2.499609 -3.869502,-0.969465 -2.397446,3.31246 C 34.235207,82.179771 34.83492,82.7 37.457027,82.7 c 1.673635,0 3.627973,0.628517 4.342973,1.396704 1.079499,1.159801 1.045576,1.254454 -0.2,0.558042 -1.277979,-0.714529 -1.303005,-0.595635 -0.169079,0.803262 0.732006,0.903059 3.207006,2.572676 5.5,3.710259 6.192487,3.072172 8.250462,4.850353 7.028172,6.072643 -0.711219,0.71122 -1.888323,0.70838 -3.775461,-0.009 -1.909411,-0.72596 -3.24939,-0.72274 -4.412839,0.0106 -1.383295,0.8719 -1.28363,0.94726 0.579207,0.43797 1.646318,-0.45009 2.25,-0.18949 2.25,0.97131 0,1.75439 -2.674817,1.42735 -8.872124,-1.08476 -4.069532,-1.64961 -5.960809,-1.79984 -4.520022,-0.35905 0.55432,0.55432 3.00682,1.63482 5.45,2.40113 2.570852,0.80634 3.599628,1.46453 2.442146,1.56243 -2,0.16915 -2,0.16915 0,1.11798 1.555387,0.7379 1.250396,0.83356 -1.371936,0.43033 -2.899182,-0.44581 -3.198953,-0.31007 -2.138125,0.96815 0.678597,0.81766 0.99546,2.10779 0.704141,2.86695 -0.350443,0.91324 1.140629,2.16263 4.406576,3.69231 3.517114,1.64733 4.571577,2.57169 3.667795,3.21526 -0.803091,0.57186 0.107322,0.71248 2.481549,0.38329 2.0625,-0.28597 3.75,-0.19396 3.75,0.20447 0,1.13653 -5.552074,1.27064 -8.362812,0.202 -2.330219,-0.88595 -2.47501,-0.78797 -1.746362,1.18175 0.468606,1.26676 2.499868,2.76958 4.951847,3.6636 2.28653,0.83369 4.157327,2.0978 4.157327,2.80914 0,1.51599 -2.849421,1.68316 -5,0.29335 -1.247338,-0.80609 -1.163117,-0.98263 0.5,-1.04807 1.7595,-0.0692 1.711979,-0.19391 -0.395184,-1.0368 -3.722874,-1.48918 -3.778714,-0.20563 -0.15376,3.53437 2.150136,2.21838 4.652574,3.64564 7.124079,4.06319 2.095351,0.35401 4.340735,1.28348 4.989742,2.06548 0.981691,1.18287 0.613214,1.41002 -2.192432,1.35154 -2.886947,-0.0602 -3.084525,-0.20687 -1.372445,-1.01911 1.540063,-0.73063 1.195111,-0.82977 -1.5,-0.43111 -2.507892,0.37096 -3.074811,0.23899 -2,-0.46557 1.315163,-0.86213 1.304894,-0.98518 -0.08333,-0.99861 -2.861714,-0.0277 -2.643013,0.94683 1.094159,4.87541 4.534761,4.76703 7.653427,6.61652 8.23169,4.88173 0.300682,-0.90204 1.407053,-0.95919 4.33067,-0.22367 3.226036,0.8116 3.884303,1.38616 3.688604,3.21956 -0.151137,1.41587 0.305797,2.23165 1.249997,2.23165 0.818515,0 1.48821,-0.675 1.48821,-1.5 0,-1.77556 1.366492,-1.79114 10,-0.11397 4.473638,0.86906 6.468886,1.70714 6.400194,2.68834 -0.08006,1.14357 1.382696,1.35955 7.393256,1.09162 l 7.49307,-0.33402 -2.39326,-2.36919 z m -23.727106,-7.33893 c -1.097691,-0.69583 -1.082937,-0.94181 0.08333,-1.38935 0.8084,-0.31021 1.417179,0.0596 1.417179,0.86084 0,0.77256 -0.0375,1.39777 -0.08333,1.38935 -0.04583,-0.008 -0.683564,-0.3958 -1.417179,-0.86084 z M 42.6,40.7 c 0,-1.555556 0.566667,-2.5 1.5,-2.5 0.933333,0 1.5,0.944444 1.5,2.5 0,1.555556 -0.566667,2.5 -1.5,2.5 -0.933333,0 -1.5,-0.944444 -1.5,-2.5 z m 102.60417,97.77083 c -0.3323,-0.33229 -0.56864,0.25834 -0.52522,1.3125 0.048,1.16495 0.28494,1.4019 0.60416,0.60417 0.28887,-0.72188 0.25335,-1.58438 -0.0789,-1.91667 z m -49.873202,-2.96382 c -0.972967,-0.25354 -2.322967,-0.23687 -3,0.0371 -0.677032,0.27393 0.119032,0.48137 1.769032,0.46099 1.65,-0.0204 2.20394,-0.2445 1.230968,-0.49804 z M 88.85,134.53772 c -0.6875,-0.27741 -1.8125,-0.27741 -2.5,0 -0.6875,0.27741 -0.125,0.50439 1.25,0.50439 1.375,0 1.9375,-0.22698 1.25,-0.50439 z m 11.98333,-1.54883 c -1.60593,-1.60594 -2.51169,-1.91053 -3.30935,-1.11287 -0.79766,0.79766 -0.75841,1.30827 0.1434,1.86562 0.80038,0.49466 0.98806,0.35708 0.52811,-0.38713 -1.04777,-1.69534 0.94887,-1.40845 2.40451,0.34549 0.68469,0.825 1.51479,1.5 1.84467,1.5 0.32987,0 -0.39523,-0.995 -1.61134,-2.21111 z m 5.42895,-2.03889 c -0.27741,-0.6875 -0.50439,-0.125 -0.50439,1.25 0,1.375 0.22698,1.9375 0.50439,1.25 0.27741,-0.6875 0.27741,-1.8125 0,-2.5 z m 2,0 c -0.27741,-0.6875 -0.50439,-0.125 -0.50439,1.25 0,1.375 0.22698,1.9375 0.50439,1.25 0.27741,-0.6875 0.27741,-1.8125 0,-2.5 z m 21.00439,1.79399 c 0,-0.80081 -0.38234,-1.21971 -0.84965,-0.9309 -0.4673,0.28881 -0.59075,0.94401 -0.27431,1.45601 0.80862,1.30838 1.12396,1.16106 1.12396,-0.52511 z M 103.41371,122.7 c -0.0251,-3.3 -0.23603,-5.1 -0.46865,-4 -0.23261,1.1 -0.63898,3.0125 -0.90305,4.25 -0.26406,1.2375 -1.18609,2.25 -2.04896,2.25 -1.31047,0 -1.43085,-0.69994 -0.73095,-4.25 0.46085,-2.3375 0.75481,-9.65 0.65325,-16.25 C 99.74754,93.79463 99.5423,92.574849 97.66535,91.328028 95.97243,90.203456 95.6,88.907845 95.6,84.143128 c 0,-3.197111 0.43886,-6.967224 0.97525,-8.378028 0.53639,-1.410805 0.62639,-2.5651 0.2,-2.5651 -1.732216,0 -3.17525,2.59044 -3.17525,5.7 0,2.39129 -0.451406,3.3 -1.639291,3.3 -1.368737,0 -1.5455,-0.783955 -1.071012,-4.75 0.312554,-2.6125 0.87338,-5.5375 1.24628,-6.5 0.423631,-1.093441 0.210251,-1.75 -0.568746,-1.75 -0.68571,0 -1.804547,-0.762839 -2.486304,-1.695197 -1.063658,-1.454639 -1.340953,-0.957971 -1.954081,3.5 -0.802501,5.834879 -1.992041,6.909318 -2.093588,1.891009 -0.03671,-1.814066 -0.398415,-4.16263 -0.803795,-5.219032 C 83.608755,66.059241 83.345467,65.988404 82.561518,67.228025 80.955273,69.767903 81.5087,66.73498 84.1,58.796748 86.65887,50.957863 87.3649,44.2 85.625,44.2 c -0.54438,0 -0.716703,-1.291485 -0.39017,-2.924152 0.62896,-3.144799 -1.870998,-8.120772 -3.089439,-6.149292 -0.364884,0.590394 -0.342339,1.592973 0.0501,2.227952 0.415327,0.672014 0.2769,0.88466 -0.331226,0.508817 -1.427489,-0.882236 -4.434772,5.728767 -3.597952,7.909487 0.45992,1.198532 0.302478,1.525934 -0.496375,1.032216 C 77.126472,46.407344 76.6,46.558524 76.6,47.140983 c 0,1.281173 1.020304,1.332133 2.895717,0.144629 0.790747,-0.500697 1.120798,-1.600192 0.761455,-2.536625 C 79.885137,43.77948 80.031611,43.348716 80.611454,43.707079 81.155154,44.043104 81.6,43.841476 81.6,43.259017 81.6,42.676558 81.15,42.2 80.6,42.2 c -0.55,0 -1,-0.498145 -1,-1.106989 0,-0.608844 0.698372,-0.838998 1.551938,-0.511454 0.853566,0.327544 1.350798,0.263189 1.10496,-0.143011 -0.245837,-0.4062 0.180791,-1.318788 0.948062,-2.027973 2.093137,-1.934673 1.825403,0.523019 -0.60496,5.553291 -2.26712,4.692398 -2.421003,6.103858 -0.897941,8.236136 0.852059,1.192877 0.964721,1.017341 0.550242,-0.857322 -0.709931,-3.210975 1.073138,-7.817239 2.481035,-6.409342 0.745353,0.745353 0.290072,3.28684 -1.537161,8.580811 C 81.768279,57.651135 80.6,61.972856 80.6,63.117972 80.6,64.301997 79.953032,65.2 79.1,65.2 77.17709,65.2 77.159593,61.699699 79.05564,56.325727 79.953496,53.780934 80.11772,52.2 79.484213,52.2 77.781139,52.2 75.6,49.473215 75.6,47.344092 c 0,-1.099321 1.57936,-5.028797 3.509689,-8.732169 3.364323,-6.454516 3.442023,-6.836674 1.875984,-9.226752 -1.439481,-2.196926 -1.743753,-2.296702 -2.559379,-0.83926 -1.634306,2.920344 -3.093188,1.890292 -2.418253,-1.707422 0.807344,-4.30351 -1.2973,-6.540747 -3.654708,-3.884958 -2.822839,3.180129 -7.804914,13.34269 -10.323463,21.058053 -2.008409,6.152595 -2.357095,8.709475 -1.826855,13.396173 C 60.56344,60.593491 61.280532,63.2 61.796554,63.2 c 0.516022,0 0.653419,-1.0125 0.305327,-2.25 -0.495444,-1.76135 -0.404815,-1.924233 0.4173,-0.75 0.577606,0.825 1.057084,3.4125 1.065506,5.75 0.01315,3.649172 0.312905,4.25 2.120348,4.25 1.845249,0 2.058949,0.483267 1.731596,3.915883 -0.205391,2.153735 -0.02766,3.702178 0.394965,3.440983 0.422622,-0.261195 0.800032,0.564158 0.838689,1.834117 0.06697,2.200024 0.114678,2.21461 1.010743,0.309017 0.699729,-1.48806 0.798124,-1.040112 0.384402,1.75 -0.331156,2.233287 -0.145966,3.75 0.457872,3.75 0.557661,0 0.754907,0.675 0.438324,1.5 -0.316582,0.825 -0.114959,1.5 0.448052,1.5 0.56301,0 1.250629,-0.5625 1.528041,-1.25 0.277413,-0.6875 0.549542,0.1 0.604731,1.75 0.05771,1.725225 2.003416,5.93781 4.578948,9.9137 3.78689,5.8459 4.478602,6.5023 4.478602,4.25 0,-1.70107 0.542084,-2.6637 1.5,-2.6637 1.149543,0 1.5,1.27122 1.5,5.44098 0,7.42807 1.806348,8.09142 2.282148,0.83808 L 88.26124,100.7 l 0.0906,6 c 0.135069,8.94504 0.540114,8.94504 1.24816,0 l 0.633241,-8 0.183379,9.16821 c 0.199151,9.95671 1.156542,14.67024 2.13734,10.52277 0.924253,-3.90835 2.529158,-2.92761 2.862843,1.74946 0.397987,5.5784 6.043217,13.65123 7.302897,10.44334 C 103.12655,129.5477 103.43886,126 103.41371,122.7 z M 92.678947,103.78333 c -0.04342,-1.05416 0.192928,-1.64479 0.52522,-1.3125 0.332291,0.3323 0.367818,1.1948 0.07895,1.91667 -0.319226,0.79773 -0.556183,0.56078 -0.604167,-0.60417 z M 94.757895,103.2 c 0,-1.375 0.226973,-1.9375 0.504386,-1.25 0.277412,0.6875 0.277412,1.8125 0,2.5 -0.277413,0.6875 -0.504386,0.125 -0.504386,-1.25 z M 80.933598,77.62696 c -0.324881,-0.846628 -0.128786,-2.976541 0.435766,-4.733142 0.85761,-2.668443 1.043253,-2.813991 1.128548,-0.884801 0.05615,1.269959 0.495838,2.065666 0.977088,1.768237 0.48125,-0.297429 0.875,0.549454 0.875,1.881961 0,2.793868 -2.538359,4.255886 -3.416402,1.967745 z m -8.217597,-1.095173 c -0.0638,-0.642516 -0.407231,-1.992516 -0.76318,-3 -0.502141,-1.42127 -0.36907,-1.575457 0.593781,-0.688007 0.682527,0.629079 1.025958,1.979079 0.76318,3 -0.262779,1.020921 -0.52998,1.330524 -0.593781,0.688007 z M 68.6,74.7 c 0,-0.825 0.435877,-1.5 0.968615,-1.5 0.532739,0 0.709594,0.675 0.393011,1.5 -0.316582,0.825 -0.752459,1.5 -0.968615,1.5 C 68.776855,76.2 68.6,75.525 68.6,74.7 z m 27.60072,54.01474 c 0.19993,-1.36226 -2.465973,-4.43061 -2.72572,-3.13718 -0.477417,2.37732 -0.384409,3.27378 0.456148,4.39661 1.057463,1.41256 1.950102,0.91722 2.269572,-1.25943 z M 94.523489,129.95 c -0.539924,-1.7642 -0.633548,-3.79339 -0.152843,-3.31269 0.729764,0.72977 1.239364,3.56269 0.64087,3.56269 -0.226334,0 -0.445946,-0.1125 -0.488027,-0.25 z m 27.149831,-2.75 c 0.50968,0 0.92668,-0.675 0.92668,-1.5 0,-2.31112 -1.69296,-1.77531 -2.36971,0.75 -0.33164,1.2375 -0.55692,2.7 -0.50063,3.25 0.0563,0.55 0.30814,0.2125 0.55967,-0.75 0.25152,-0.9625 0.87432,-1.75 1.38399,-1.75 z m -14.38399,-2.75 c -0.25153,-0.9625 -0.45733,-0.175 -0.45733,1.75 0,1.925 0.2058,2.7125 0.45733,1.75 0.25152,-0.9625 0.25152,-2.5375 0,-3.5 z m -2.08516,1.02083 c -0.3323,-0.33229 -0.56864,0.25834 -0.52522,1.3125 0.048,1.16495 0.28494,1.4019 0.60416,0.60417 0.28887,-0.72187 0.25335,-1.58437 -0.0789,-1.91667 z M 115.3234,118.95 c -0.22183,-1.7875 -0.40333,-0.325 -0.40333,3.25 0,3.575 0.1815,5.0375 0.40333,3.25 0.22182,-1.7875 0.22182,-4.7125 0,-6.5 z m -6.03632,0.48834 c -0.25029,-0.95609 -0.446,0.0617 -0.4349,2.26166 0.0111,2.2 0.21589,2.98225 0.45508,1.73834 0.23919,-1.24391 0.23011,-3.04391 -0.0202,-4 z M 94.262281,118.95 c -0.277413,-0.6875 -0.504386,-0.125 -0.504386,1.25 0,1.375 0.226973,1.9375 0.504386,1.25 0.277412,-0.6875 0.277412,-1.8125 0,-2.5 z m 10.941889,0.52083 c -0.3323,-0.33229 -0.56864,0.25834 -0.52522,1.3125 0.048,1.16495 0.28494,1.4019 0.60416,0.60417 0.28887,-0.72187 0.25335,-1.58437 -0.0789,-1.91667 z m 1.29351,-14.67597 c -0.89878,-0.82551 -1.03282,-0.64422 -0.54486,0.73693 0.35595,1.00748 0.73774,5.05748 0.84842,9 l 0.20125,7.16821 0.34361,-7.90514 c 0.22793,-5.24374 -0.0577,-8.27375 -0.84842,-9 z m -1.18315,4.63723 c -0.22818,-1.50265 -0.41027,-0.0321 -0.40466,3.26791 0.006,3.3 0.1923,4.52944 0.41486,2.73209 0.22256,-1.79735 0.21797,-4.49735 -0.0102,-6 z M 103.1,115.2 c -0.33992,-0.55 -0.81648,-1 -1.05902,-1 -0.24254,0 -0.44098,0.45 -0.44098,1 0,0.55 0.47656,1 1.05902,1 0.58246,0 0.7809,-0.45 0.44098,-1 z m -0.84406,-6.26903 c -0.27393,-0.67703 -0.48137,0.11903 -0.46099,1.76903 0.0204,1.65 0.2445,2.20394 0.49804,1.23097 0.25354,-0.97297 0.23687,-2.32297 -0.037,-3 z m -17.96886,-6.49263 c -0.250292,-0.95609 -0.445996,0.0617 -0.434897,2.26166 0.0111,2.2 0.215885,2.98225 0.455078,1.73834 0.239193,-1.24391 0.230112,-3.04391 -0.02018,-4 z m -5.345071,0.437 c 0.361895,0.3619 0.657991,0.38455 0.657991,0.0503 0,-1.55061 -1.910242,-1.52909 -3.136693,0.0353 -1.204301,1.53617 -1.177627,1.59421 0.228702,0.49767 0.875605,-0.68273 1.888105,-0.94523 2.25,-0.58334 z m 25.626191,0.40799 c -0.0175,-0.32083 -0.69484,-1.46004 -1.50521,-2.53158 -1.41832,-1.87541 -1.46557,-1.8536 -1.26388,0.58333 0.11523,1.39237 0.79258,2.53159 1.5052,2.53159 0.71263,0 1.28138,-0.2625 1.26389,-0.58334 z M 76.182733,98.63684 c -0.853405,-0.62403 -1.234857,-1.45138 -0.84767,-1.83857 0.387187,-0.38719 -0.159555,-0.37261 -1.214982,0.0324 -1.13085,0.43395 -1.423795,0.90143 -0.713289,1.13826 0.663118,0.22104 1.010904,0.71703 0.772857,1.1022 -0.238046,0.38516 0.464385,0.7003 1.560959,0.7003 1.731909,0 1.789978,-0.14902 0.442125,-1.13459 z M 39.7875,98.51689 c -0.721875,-0.28887 -1.584375,-0.25335 -1.916667,0.0789 -0.332291,0.33229 0.258334,0.56864 1.3125,0.52522 1.164943,-0.048 1.4019,-0.28494 0.604167,-0.60417 z m 62.0733,-5.42759 c -0.74384,-2.844465 -1.26263,-2.27769 -1.24549,1.3607 0.0104,2.20964 0.29129,2.81443 0.87743,1.8893 0.47417,-0.74838 0.6398,-2.21088 0.36806,-3.25 z M 101.13347,86.45 c -0.83606,-4.549703 -2.53939,-6.712824 -2.51982,-3.2 0.0202,3.619479 1.08128,6.95 2.21427,6.95 0.60523,0 0.72486,-1.468218 0.30555,-3.75 z m -3.9293,-1.979167 c -0.3323,-0.332291 -0.56864,0.258334 -0.52522,1.3125 0.048,1.164943 0.28494,1.4019 0.60416,0.604167 0.28887,-0.721875 0.25335,-1.584375 -0.0789,-1.916667 z m 0,-4 c -0.3323,-0.332291 -0.56864,0.258334 -0.52522,1.3125 0.048,1.164943 0.28494,1.4019 0.60416,0.604167 0.28887,-0.721875 0.25335,-1.584375 -0.0789,-1.916667 z M 92.255937,75.930968 C 91.982014,75.253936 91.774569,76.05 91.794949,77.7 c 0.02038,1.65 0.244498,2.203936 0.498042,1.230968 0.253543,-0.972967 0.236869,-2.322967 -0.03705,-3 z M 38.103323,75.205377 c -0.33809,-0.547042 -1.602148,-1.477244 -2.809017,-2.067114 -1.890409,-0.92396 -1.848072,-0.78929 0.305694,0.972386 2.799727,2.290041 3.405899,2.555126 2.503323,1.094728 z M 59.6,66.640983 C 59.6,66.398442 59.15,66.2 58.6,66.2 c -0.55,0 -1,0.476558 -1,1.059017 0,0.582459 0.45,0.780902 1,0.440983 0.55,-0.339919 1,-0.816476 1,-1.059017 z m 25.472927,-1.484788 c -0.354809,-0.574093 -0.134515,-1.65903 0.489541,-2.410972 0.673881,-0.811977 0.75501,-1.601797 0.19978,-1.944948 -0.514177,-0.317779 -1.189321,0.395252 -1.50032,1.584514 C 83.720432,64.455472 84.157617,66.2 85.218034,66.2 c 0.275,0 0.209702,-0.469712 -0.145107,-1.043805 z m 2.10743,-6.518695 c -1.871429,-1.871429 -2.030745,-1.147574 -0.412803,1.875578 0.719634,1.344647 1.325923,1.706492 1.580358,0.943187 0.227041,-0.681124 -0.298358,-1.949569 -1.167555,-2.818765 z m -6.97619,-2.166667 c -0.332292,-0.332291 -0.568641,0.258334 -0.52522,1.3125 0.04798,1.164943 0.284941,1.4019 0.604167,0.604167 0.288871,-0.721875 0.253344,-1.584375 -0.07895,-1.916667 z m -45.482094,-2.94583 c -1.178845,-2.027217 -1.463513,-1.378356 -0.498534,1.136338 0.342946,0.893703 0.834195,1.414259 1.091663,1.15679 0.257469,-0.257469 -0.0094,-1.289377 -0.593129,-2.293128 z M 84.569374,46.7 c 0,-0.55 -0.436218,-0.325 -0.969374,0.5 -0.533156,0.825 -0.969374,1.95 -0.969374,2.5 0,0.55 0.436218,0.325 0.969374,-0.5 0.533156,-0.825 0.969374,-1.95 0.969374,-2.5 z M 56.204167,45.470833 c -0.332292,-0.332291 -0.568641,0.258334 -0.52522,1.3125 0.04798,1.164943 0.284941,1.4019 0.604167,0.604167 0.288871,-0.721875 0.253344,-1.584375 -0.07895,-1.916667 z m -2,-7 c -0.332292,-0.332291 -0.568641,0.258334 -0.52522,1.3125 0.04798,1.164943 0.284941,1.4019 0.604167,0.604167 0.288871,-0.721875 0.253344,-1.584375 -0.07895,-1.916667 z M 63.6,36.2 c 0,-0.55 -0.476558,-1 -1.059017,-1 -0.582459,0 -0.780902,0.45 -0.440983,1 0.339919,0.55 0.816476,1 1.059017,1 0.242541,0 0.440983,-0.45 0.440983,-1 z m 2.268785,-4.919833 c 0.290488,-1.110829 -0.06624,-2.1722 -0.828366,-2.464657 -0.903177,-0.346581 -1.137222,0.01103 -0.719553,1.099462 0.412297,1.074428 0.228318,1.371656 -0.550927,0.890056 -1.321691,-0.81685 -1.434161,-0.457155 -0.565154,1.807441 0.7374,1.921635 1.974923,1.302733 2.664,-1.332302 z m 0.527544,-5.034689 C 65.724988,25.170492 64.98205,24.484617 64.745354,24.721312 64.316759,25.149908 66.496086,28.2 67.230919,28.2 c 0.212316,0 -0.16325,-0.879535 -0.83459,-1.954522 z m 2.600665,-0.878811 C 69.28026,24.908333 68.876612,24.533333 68.1,24.533333 c -0.776612,0 -1.18026,0.375 -0.896994,0.833334 C 67.486271,25.825 67.889919,26.2 68.1,26.2 c 0.210081,0 0.613729,-0.375 0.896994,-0.833333 z M 48.6,21.7 c 0.684689,-0.825 1.019889,-1.5 0.744889,-1.5 -0.275,0 -1.0602,0.675 -1.744889,1.5 -0.684689,0.825 -1.019889,1.5 -0.744889,1.5 0.275,0 1.0602,-0.675 1.744889,-1.5 z m 24,-1.059017 C 72.6,20.398442 72.15,20.2 71.6,20.2 c -0.55,0 -1,0.476558 -1,1.059017 0,0.582459 0.45,0.780902 1,0.440983 0.55,-0.339919 1,-0.816476 1,-1.059017 z m -2.8125,-2.124097 c -0.721875,-0.288871 -1.584375,-0.253344 -1.916667,0.07895 -0.332291,0.332292 0.258334,0.568641 1.3125,0.52522 1.164943,-0.04798 1.4019,-0.284941 0.604167,-0.604167 z m 89.90714,167.808954 c -2.68179,-0.74848 -4.93622,-3.6176 -3.76379,-4.79002 0.41806,-0.41806 1.63354,-0.21464 2.70106,0.45203 1.06752,0.66668 3.07206,1.21215 4.45452,1.21215 1.56762,0 2.51357,0.56451 2.51357,1.5 0,0.825 -0.1882,1.5 -0.41821,1.5 -0.23002,0 -1.01752,0.17936 -1.75,0.39858 -0.73249,0.21922 -2.4142,0.0965 -3.73715,-0.27274 z m 2.07249,-17.65837 C 159.93682,164.65037 159.15409,158.2 160.49694,158.2 c 0.63391,0 1.58244,1.2375 2.10785,2.75 0.52541,1.5125 1.63927,4.02397 2.47525,5.58104 1.98382,3.69501 1.91716,4.66896 -0.31952,4.66896 -1.01172,0 -2.35874,-1.13964 -2.99339,-2.53253 z m -25.50046,-27.13414 c -0.36667,-0.36666 -0.66667,-2.39166 -0.66667,-4.5 0,-2.74074 0.42754,-3.83333 1.5,-3.83333 1.11111,0 1.5,1.16667 1.5,4.5 0,4.19939 -0.74438,5.42229 -2.33333,3.83333 z m 0.9375,-4.0625 c -0.3323,-0.33229 -0.56864,0.25834 -0.52522,1.3125 0.048,1.16495 0.28494,1.4019 0.60416,0.60417 0.28887,-0.72188 0.25335,-1.58438 -0.0789,-1.91667 z m -29.9375,-40.9375 C 106.9,96.16667 106.6,94.36667 106.6,92.533333 106.6,90.237037 107.06667,89.2 108.1,89.2 c 0.825,0 1.5,0.857871 1.5,1.90638 0,1.418739 0.51539,1.7716 2.01486,1.379482 1.63432,-0.427384 1.88418,-0.173619 1.32294,1.343618 -1.08192,2.92483 -4.03988,4.33511 -5.67113,2.70385 z"
         id="path2989"
         style="fill:#c0b580;fill-opacity:1" />
    </g>
  </g>
</svg>
