<?xml version="1.0" encoding="UTF-8" standalone="no"?>
<!-- Created with Inkscape (http://www.inkscape.org/) -->

<svg
   xmlns:dc="http://purl.org/dc/elements/1.1/"
   xmlns:cc="http://creativecommons.org/ns#"
   xmlns:rdf="http://www.w3.org/1999/02/22-rdf-syntax-ns#"
   xmlns:svg="http://www.w3.org/2000/svg"
   xmlns="http://www.w3.org/2000/svg"
   version="1.1"
   width="24.999998"
   height="25"
   id="svg2">
  <defs
     id="defs4" />
  <metadata
     id="metadata7">
    <rdf:RDF>
      <cc:Work
         rdf:about="">
        <dc:format>image/svg+xml</dc:format>
        <dc:type
           rdf:resource="http://purl.org/dc/dcmitype/StillImage" />
        <dc:title></dc:title>
      </cc:Work>
    </rdf:RDF>
  </metadata>
  <path
     d="m 13.446684,0.09500408 c 2.352705,0.33354191 4.940535,1.06051092 6.687032,2.47717882 1.481838,1.2019912 3.434516,3.2392554 4.115304,5.0249999 1.051617,2.7584482 0.778521,5.8964062 0.490286,7.3653702 -0.530235,2.702292 -1.65865,5.146602 -3.48828,7.000144 -1.243487,1.259741 -3.486466,1.936377 -4.71854,2.424396 -2.014251,0.797835 -5.499031,0.698984 -7.6387859,0.364833 C 6.5045588,24.378831 4.2277389,22.174114 2.5867142,20.392358 1.2055182,18.892715 0.33289972,16.477276 0.06759409,14.452753 -0.1995241,12.414412 0.37297646,10.491245 0.94662599,8.6062975 1.2880431,7.4844412 1.8069885,6.4066426 2.4499745,5.4270068 3.1705775,4.3291168 4.0073999,3.2668548 5.0468455,2.4666157 6.2698572,1.5250545 7.7613043,0.79853584 9.1909672,0.40705353 10.62063,0.01557142 12.038318,-0.10465939 13.446684,0.09500408 z"
     id="path3005"
     style="fill:#000000;fill-opacity:1;stroke:none" />
  <path
     d="m 13.274208,0.75700315 c 2.19302,0.31090345 4.605206,0.98853085 6.233161,2.30904515 1.381262,1.1204085 3.201406,3.0193967 3.835987,4.6839377 0.980241,2.571224 0.725681,5.496198 0.457009,6.86546 -0.494246,2.518879 -1.546073,4.797286 -3.25152,6.525023 -1.159089,1.174238 -3.249829,1.804948 -4.398279,2.259844 -1.877536,0.743684 -5.125794,0.651543 -7.1203176,0.340071 C 6.8032659,23.392611 4.680981,21.337535 3.1513372,19.676713 1.8638868,18.278856 1.0504958,16.027359 0.80319699,14.140248 0.55420945,12.240255 1.0878527,10.447619 1.6225674,8.6906089 1.9408109,7.6448961 2.4245342,6.6402512 3.0238788,5.7271067 3.6955718,4.7037344 4.4755956,3.7135703 5.4444913,2.9676461 6.5844948,2.0899916 7.9747113,1.4127839 9.3073387,1.0478728 10.639966,0.68296179 11.961431,0.57089144 13.274208,0.75700315 z"
     id="path2987"
     style="fill:#00ffe4;fill-opacity:1;stroke:none" />
  <path
     d="M 19.168229,18.914597 C 11.714482,10.814604 5.3874265,15.845583 4.6537877,19.672322 2.8943643,16.823182 12.777279,8.7223371 20.298915,18.319516 c 2.614384,0.361067 -0.03993,1.583177 -1.130686,0.595081 z"
     id="path2993"
     style="fill:#000000;fill-opacity:1;stroke:none" />
  <path
     d="m 15.36291,4.7023876 c -0.892504,1.2036038 0.35647,3.7218582 1.255803,4.9237274 0.842217,1.125537 2.551643,2.616881 3.334238,1.416529 C 20.71606,9.8721815 19.492496,7.7358771 18.693898,6.6057972 17.848674,5.4097377 16.225499,3.5391227 15.36291,4.7023876 z"
     id="path2991"
     style="fill:#000000;fill-opacity:1;stroke:none" />
  <path
     d="m 17.000416,6.2043879 c -0.551501,0.4606986 -0.03616,1.7466616 0.372215,2.3917419 0.382443,0.604112 1.207078,1.4658942 1.699509,0.9953327 C 19.552309,9.1326166 19.027277,8.0247468 18.668475,7.4230574 18.288727,6.7862343 17.533433,5.7591292 17.000416,6.2043879 z"
     id="path2997"
     style="fill:#ffffff;fill-opacity:1;stroke:none" />
  <path
     d="M 5.4155941,4.7652036 C 4.5735317,5.9452461 5.7519175,8.4142035 6.600425,9.5925446 7.3950422,10.696049 9.0078585,12.158198 9.7462251,10.981344 10.466207,9.8337951 9.3117935,7.7393098 8.5583292,6.6313519 7.760874,5.4587067 6.2294329,3.62471 5.4155941,4.7652036 z"
     id="path2991-6"
     style="fill:#000000;fill-opacity:1;stroke:none" />
  <path
     d="M 6.8805307,6.344377 C 6.3290289,6.8050754 6.8443648,8.0910386 7.252745,8.7361184 7.6351874,9.3402316 8.4598226,10.202014 8.9522541,9.7314507 9.432424,9.2726065 8.9073893,8.1647356 8.5485888,7.5630467 8.1688415,6.9262231 7.4135466,5.8991188 6.8805307,6.344377 z"
     id="path2997-2"
     style="fill:#ffffff;fill-opacity:1;stroke:none" />
</svg>
