<?xml version="1.0" encoding="UTF-8" standalone="no"?>
<!-- Created with Inkscape (http://www.inkscape.org/) -->

<svg
   xmlns:dc="http://purl.org/dc/elements/1.1/"
   xmlns:cc="http://creativecommons.org/ns#"
   xmlns:rdf="http://www.w3.org/1999/02/22-rdf-syntax-ns#"
   xmlns:svg="http://www.w3.org/2000/svg"
   xmlns="http://www.w3.org/2000/svg"
   version="1.1"
   width="24.999998"
   height="25"
   id="svg2">
  <defs
     id="defs4" />
  <metadata
     id="metadata7">
    <rdf:RDF>
      <cc:Work
         rdf:about="">
        <dc:format>image/svg+xml</dc:format>
        <dc:type
           rdf:resource="http://purl.org/dc/dcmitype/StillImage" />
        <dc:title></dc:title>
      </cc:Work>
    </rdf:RDF>
  </metadata>
  <path
     d="m 13.446684,0.09500408 c 2.352705,0.33354191 4.940535,1.06051092 6.687032,2.47717882 1.481838,1.2019912 3.434516,3.2392554 4.115304,5.0249999 1.051617,2.7584482 0.778521,5.8964062 0.490286,7.3653702 -0.530235,2.702292 -1.65865,5.146602 -3.48828,7.000144 -1.243487,1.259741 -3.486466,1.936377 -4.71854,2.424396 -2.014251,0.797835 -5.499031,0.698984 -7.6387859,0.364833 C 6.5045588,24.378831 4.2277389,22.174114 2.5867142,20.392358 1.2055182,18.892715 0.33289972,16.477276 0.06759409,14.452753 -0.1995241,12.414412 0.37297646,10.491245 0.94662599,8.6062975 1.2880431,7.4844412 1.8069885,6.4066426 2.4499745,5.4270068 3.1705775,4.3291168 4.0073999,3.2668548 5.0468455,2.4666157 6.2698572,1.5250545 7.7613043,0.79853584 9.1909672,0.40705353 10.62063,0.01557142 12.038318,-0.10465939 13.446684,0.09500408 z"
     id="path3005"
     style="fill:#000000;fill-opacity:1;stroke:none" />
  <path
     d="m 13.274208,0.75700315 c 2.19302,0.31090345 4.605206,0.98853085 6.233161,2.30904515 1.381262,1.1204085 3.201406,3.0193967 3.835987,4.6839377 0.980241,2.571224 0.725681,5.496198 0.457009,6.86546 -0.494246,2.518879 -1.546073,4.797286 -3.25152,6.525023 -1.159089,1.174238 -3.249829,1.804948 -4.398279,2.259844 -1.877536,0.743684 -5.125794,0.651543 -7.1203176,0.340071 C 6.8032659,23.392611 4.680981,21.337535 3.1513372,19.676713 1.8638868,18.278856 1.0504958,16.027359 0.80319699,14.140248 0.55420945,12.240255 1.0878527,10.447619 1.6225674,8.6906089 1.9408109,7.6448961 2.4245342,6.6402512 3.0238788,5.7271067 3.6955718,4.7037344 4.4755956,3.7135703 5.4444913,2.9676461 6.5844948,2.0899916 7.9747113,1.4127839 9.3073387,1.0478728 10.639966,0.68296179 11.961431,0.57089144 13.274208,0.75700315 z"
     id="path2987"
     style="fill:#ffcc00;fill-opacity:1;stroke:none" />
  <path
     d="m 8.0853176,17.956349 c 0,0 1.0495928,1.427139 1.8353179,1.984127 0.8245935,0.584541 2.0468825,0.993632 2.9265865,0.793652 0.853791,-0.635657 0.849068,-1.361176 0.595238,-2.232144 -0.350093,-1.201274 -1.40177,-2.103575 -2.083333,-3.174603 l -0.14881,-0.148809 z"
     id="path3006"
     style="fill:#ff5001;fill-opacity:1;stroke:#962f00;stroke-width:1px;stroke-linecap:butt;stroke-linejoin:miter;stroke-opacity:1" />
  <path
     d="m 6.0759769,21.362618 c 0.9063955,0.528237 2.3633345,0.762315 1.0355355,-0.50788 C 13.146748,10.163543 18.26971,16.803942 18.863731,21.854861 20.288321,18.094276 12.28621,7.4019585 6.1960057,20.069289 4.7038971,19.703795 4.8943842,21.262349 6.0759769,21.362618 z"
     id="path2993"
     style="fill:#000000;fill-opacity:1;stroke:none" />
  <path
     d="M 5.398116,5.4764384 C 4.290825,6.2472299 5.3313056,8.3903907 6.1545754,9.464861 6.9255587,10.47109 8.5864786,11.905372 9.5749724,11.118366 10.538854,10.350956 9.4794791,8.5049337 8.7560363,7.5026464 7.9903553,6.4418417 6.4682949,4.7314807 5.398116,5.4764384 z"
     id="path2989"
     style="fill:#000000;fill-opacity:1;stroke:none" />
  <path
     d="M 5.7657731,5.8399436 C 5.2762296,6.137982 5.6616884,7.0737565 5.9828306,7.5507477 6.2835761,7.9974448 6.9505379,8.6487759 7.3901314,8.3407744 7.8187787,8.0404432 7.4175838,7.230167 7.1368932,6.7863773 6.8398176,6.3166764 6.2389082,5.551895 5.7657731,5.8399436 z"
     id="path2995"
     style="fill:#ffffff;fill-opacity:1;stroke:none" />
  <path
     d="m 13.035315,4.9194043 c -1.175896,1.1284659 0.469658,3.4895121 1.654554,4.6163517 1.109641,1.055273 3.361854,2.453516 4.392944,1.328099 C 20.088231,9.7664615 18.476152,7.7635207 17.423979,6.7039888 16.310375,5.5825962 14.171798,3.828759 13.035315,4.9194043 z"
     id="path2991"
     style="fill:#000000;fill-opacity:1;stroke:none" />
  <path
     d="m 13.969916,5.1902077 c -0.471049,0.3264842 -0.03089,1.2378101 0.317916,1.6949604 0.326652,0.4281172 1.03099,1.0388387 1.451586,0.7053639 C 16.149541,7.2653612 15.7011,6.480245 15.394639,6.0538446 15.070289,5.6025459 14.425176,4.8746654 13.969916,5.1902077 z"
     id="path2997"
     style="fill:#ffffff;fill-opacity:1;stroke:none" />
</svg>
