<?xml version="1.0" encoding="UTF-8" standalone="no"?>
<!-- Created with Inkscape (http://www.inkscape.org/) -->

<svg
   xmlns:dc="http://purl.org/dc/elements/1.1/"
   xmlns:cc="http://creativecommons.org/ns#"
   xmlns:rdf="http://www.w3.org/1999/02/22-rdf-syntax-ns#"
   xmlns:svg="http://www.w3.org/2000/svg"
   xmlns="http://www.w3.org/2000/svg"
   version="1.1"
   width="24.999998"
   height="25"
   id="svg2">
  <defs
     id="defs4" />
  <metadata
     id="metadata7">
    <rdf:RDF>
      <cc:Work
         rdf:about="">
        <dc:format>image/svg+xml</dc:format>
        <dc:type
           rdf:resource="http://purl.org/dc/dcmitype/StillImage" />
        <dc:title></dc:title>
      </cc:Work>
    </rdf:RDF>
  </metadata>
  <g
     transform="translate(-255.01914,-295.29509)"
     id="layer1">
    <g
       transform="matrix(0.10069786,0,0,0.10103828,229.33926,287.93303)"
       id="g2992">
      <path
         d="m 388.55408,73.804345 c 23.364,3.301144 49.06296,10.49613 66.40689,24.517231 14.71568,11.896394 34.10714,32.059684 40.86784,49.733624 10.44329,27.30102 7.73126,58.35814 4.86888,72.89683 -5.2656,26.74523 -16.47155,50.93715 -34.64105,69.2821 -12.3487,12.46795 -34.62304,19.16478 -46.8584,23.99482 -20.00291,7.89637 -54.60921,6.91802 -75.85847,3.61084 -23.72584,-3.69261 -46.33625,-25.51322 -62.63277,-43.14768 -13.71624,-14.84233 -22.38195,-38.74851 -25.01662,-58.78569 -2.65267,-20.17395 3.03266,-39.20799 8.7294,-57.86377 3.39051,-11.10328 8.544,-21.77051 14.9293,-31.4662 7.15609,-10.86608 15.46632,-21.37954 25.78874,-29.299698 12.14536,-9.318856 26.95647,-16.509385 41.15402,-20.383979 14.19755,-3.874592 28.27618,-5.064545 42.26224,-3.088428 z"
         id="path3005"
         style="fill:#000000;fill-opacity:1;stroke:none" />
      <path
         d="m 386.84127,80.356308 c 21.77822,3.077086 45.73291,9.783726 61.89964,22.853172 13.71689,11.08895 31.79219,29.88369 38.09402,46.35805 9.73448,25.44802 7.20652,54.39719 4.53842,67.9491 -4.90821,24.92995 -15.35358,47.47988 -32.28986,64.57971 -11.51056,11.62171 -32.27307,17.864 -43.67798,22.36622 -18.64524,7.36041 -50.90271,6.44847 -70.70972,3.36576 -22.11549,-3.44199 -43.19126,-23.78157 -58.38169,-40.21912 -12.78528,-13.83493 -20.86282,-36.11853 -23.31867,-54.79572 -2.47262,-18.80468 2.82683,-36.54683 8.13692,-53.93638 3.16038,-10.34967 7.96409,-20.29288 13.916,-29.33049 6.67038,-10.12856 14.41656,-19.92845 24.03837,-27.31104 11.32103,-8.686357 25.12685,-15.388843 38.36077,-19.000456 13.23392,-3.611611 26.35699,-4.720798 39.39378,-2.878806 z"
         id="path2987"
         style="fill:#ffcc00;fill-opacity:1;stroke:none" />
      <path
         d="m 325.70229,225.67327 c 9.00114,-5.22809 23.46956,-7.54481 10.28359,5.02661 59.9341,105.81331 110.80869,40.0917 116.70773,-9.89846 14.14717,37.21941 -65.31937,143.04383 -125.79935,17.67224 -14.81768,3.61738 -12.92601,-11.808 -1.19197,-12.80039 z"
         id="path2993"
         style="fill:#000000;fill-opacity:1;stroke:none" />
      <path
         d="m 364.137,122.04794 c -13.35397,1.08193 -15.12721,24.5946 -13.42726,37.88404 1.59199,12.44541 8.68469,32.98238 21.09997,31.17041 12.10615,-1.76685 12.23316,-22.83172 11.02954,-35.00677 -1.2739,-12.88588 -5.79585,-35.09335 -18.70225,-34.04768 z"
         id="path2989"
         style="fill:#000000;fill-opacity:1;stroke:none" />
      <path
         d="m 370.49813,129.5843 c -5.67288,0.45962 -6.42616,10.44798 -5.70401,16.09344 0.67629,5.28691 3.68932,14.01117 8.96344,13.24143 5.14278,-0.75057 5.19673,-9.69909 4.68543,-14.87115 -0.54117,-5.47402 -2.46212,-14.90793 -7.94486,-14.46372 z"
         id="path2995"
         style="fill:#ffffff;fill-opacity:1;stroke:none" />
      <path
         d="m 410.22394,110.18028 c -16.13158,1.30697 -18.27365,29.71025 -16.22011,45.76388 1.92312,15.03404 10.49109,39.84269 25.48874,37.65383 14.62422,-2.13435 14.77764,-27.58071 13.32367,-42.28815 -1.53887,-15.56614 -7.00138,-42.39274 -22.5923,-41.12956 z"
         id="path2991"
         style="fill:#000000;fill-opacity:1;stroke:none" />
      <path
         d="m 418.71815,120.22818 c -5.67287,0.45961 -6.42616,10.44798 -5.70401,16.09343 0.67629,5.28691 3.68933,14.01118 8.96344,13.24144 5.14278,-0.75057 5.19674,-9.6991 4.68543,-14.87115 -0.54116,-5.47403 -2.46212,-14.90793 -7.94486,-14.46372 z"
         id="path2997"
         style="fill:#ffffff;fill-opacity:1;stroke:none" />
    </g>
  </g>
</svg>
