<?xml version="1.0" encoding="UTF-8" standalone="no"?>
<!-- Created with Inkscape (http://www.inkscape.org/) -->

<svg
   xmlns:dc="http://purl.org/dc/elements/1.1/"
   xmlns:cc="http://creativecommons.org/ns#"
   xmlns:rdf="http://www.w3.org/1999/02/22-rdf-syntax-ns#"
   xmlns:svg="http://www.w3.org/2000/svg"
   xmlns="http://www.w3.org/2000/svg"
   version="1.1"
   width="85"
   height="85"
   id="svg2">
  <metadata
     id="metadata8">
    <rdf:RDF>
      <cc:Work
         rdf:about="">
        <dc:format>image/svg+xml</dc:format>
        <dc:type
           rdf:resource="http://purl.org/dc/dcmitype/StillImage" />
        <dc:title></dc:title>
      </cc:Work>
    </rdf:RDF>
  </metadata>
  <defs
     id="defs6" />
  <g
     id="g3848">
    <path
       d="m 81.725422,42.499999 a 39.225422,39.225421 0 1 1 -0.0012,-0.305864"
       id="path2987"
       style="fill:#ffffff;fill-opacity:1;stroke:#9a9a9a;stroke-width:1.5;stroke-linecap:round;stroke-linejoin:miter;stroke-miterlimit:4;stroke-opacity:1;stroke-dasharray:none" />
    <path
       d="m 3.3771902,41.18833 0.7748759,-0.172288 c 0.8538532,6.826588 2.4396356,11.391226 4.9772551,14.66239 -0.057401,4.124732 0.098164,5.611933 0.8252514,8.95046 C 6.7862936,60.059558 3.4070115,51.030185 3.3771902,41.18833 z"
       id="path3757"
       style="fill:#9a9a9a;fill-opacity:1;stroke:#9a9a9a;stroke-width:1px;stroke-linecap:butt;stroke-linejoin:miter;stroke-opacity:1" />
    <path
       d="m 64.277549,13.310864 c -3.803067,1.878168 -6.730797,3.642987 -10.096195,6.337028 2.56961,5.15176 4.35798,10.577062 5.693089,15.455279 4.785426,0.447028 9.364948,1.825985 13.943059,3.328308 0.939905,-3.378313 1.904289,-7.350984 2.34118,-12.227702 C 73.054519,21.543242 69.07836,17.422962 64.277549,13.310864 z"
       id="path3761"
       style="fill:#9a9a9a;fill-opacity:1;stroke:#9a9a9a;stroke-width:1px;stroke-linecap:butt;stroke-linejoin:miter;stroke-opacity:1" />
    <path
       d="m 79.4868,56.044033 c -1.408022,-0.683547 -2.542501,-1.14826 -4.224066,-2.050641 -4.743756,7.221173 -6.040876,9.245038 -11.277009,13.128991 0.0811,2.849072 -0.603713,5.424601 -1.890322,7.890713 0.427591,-0.01401 0.855181,-0.02801 1.282772,-0.04202 C 70.85094,70.370917 74.744332,64.714248 79.4868,56.044033 z"
       id="path3763"
       style="fill:#9a9a9a;fill-opacity:1;stroke:#9a9a9a;stroke-width:1px;stroke-linecap:butt;stroke-linejoin:miter;stroke-opacity:1" />
    <path
       d="m 29.791398,45.616419 c -3.464306,4.427146 -5.46553,7.798568 -7.604569,13.48831 3.474099,5.373499 7.2855,9.735092 11.940155,13.084782 5.520498,-1.419322 10.703694,-3.344595 15.549589,-6.787726 C 49.744033,59.934845 49.136882,53.92082 47.349179,48.453879 41.31702,46.83066 35.600805,46.281835 29.791398,45.616419 z"
       id="path3765"
       style="fill:#9a9a9a;fill-opacity:1;stroke:#9a9a9a;stroke-width:1px;stroke-linecap:butt;stroke-linejoin:miter;stroke-opacity:1" />
    <path
       d="m 15.546813,14.362073 c 4.75894,-2.633683 9.572588,-5.1032402 14.60507,-7.2445463 2.50376,2.7684944 3.91335,4.9899033 6.03415,8.1413573 -4.157847,4.252163 -8.151569,7.957242 -11.981165,12.75649 -4.060292,-0.449798 -7.737624,-0.571345 -12.509126,-0.03639 0.681897,-5.414307 1.910879,-9.077941 3.851071,-13.616911 z"
       id="path3767"
       style="fill:#9a9a9a;fill-opacity:1;stroke:#9a9a9a;stroke-width:1px;stroke-linecap:butt;stroke-linejoin:miter;stroke-opacity:1" />
    <path
       d="m 29.038311,78.663906 c 2.504703,0.463478 3.98387,0.48744 5.609542,0.07189 2.318905,1.259396 4.002357,1.966068 5.856286,2.4048 C 34.657815,80.72163 32.46133,79.821742 29.038311,78.663909 z"
       id="path3757-4"
       style="fill:#9a9a9a;fill-opacity:1;stroke:#9a9a9a;stroke-width:1px;stroke-linecap:butt;stroke-linejoin:miter;stroke-opacity:1" />
  </g>
</svg>
