<?xml version="1.0" encoding="UTF-8" standalone="no"?>
<!-- Created with Inkscape (http://www.inkscape.org/) -->

<svg
   xmlns:dc="http://purl.org/dc/elements/1.1/"
   xmlns:cc="http://creativecommons.org/ns#"
   xmlns:rdf="http://www.w3.org/1999/02/22-rdf-syntax-ns#"
   xmlns:svg="http://www.w3.org/2000/svg"
   xmlns="http://www.w3.org/2000/svg"
   version="1.1"
   width="85"
   height="120"
   id="svg2">
  <metadata
     id="metadata8">
    <rdf:RDF>
      <cc:Work
         rdf:about="">
        <dc:format>image/svg+xml</dc:format>
        <dc:type
           rdf:resource="http://purl.org/dc/dcmitype/StillImage" />
        <dc:title></dc:title>
      </cc:Work>
    </rdf:RDF>
  </metadata>
  <defs
     id="defs6" />
  <path
     d="m 81.725422,77.499999 a 39.225422,39.225421 0 1 1 -0.0012,-0.305864"
     id="path2987"
     style="fill:#ffffff;fill-opacity:1;stroke:#000000;stroke-width:1.5;stroke-linecap:round;stroke-linejoin:miter;stroke-miterlimit:4;stroke-opacity:1;stroke-dasharray:none" />
  <path
     d="m 3.3771902,76.18833 0.7748759,-0.172288 c 0.8538532,6.826588 2.4396356,11.391226 4.9772551,14.66239 -0.057401,4.124732 0.098164,5.611933 0.8252514,8.95046 C 6.7862936,95.059558 3.4070115,86.030185 3.3771902,76.18833 z"
     id="path3757"
     style="fill:#000000;fill-opacity:1;stroke:#000000;stroke-width:1px;stroke-linecap:butt;stroke-linejoin:miter;stroke-opacity:1" />
  <path
     d="m 64.277549,48.310864 c -3.803067,1.878168 -6.730797,3.642987 -10.096195,6.337028 2.56961,5.15176 4.35798,10.577062 5.693089,15.455279 4.785426,0.447028 9.364948,1.825985 13.943059,3.328308 0.939905,-3.378313 1.904289,-7.350984 2.34118,-12.227702 C 73.054519,56.543242 69.07836,52.422962 64.277549,48.310864 z"
     id="path3761"
     style="fill:#000000;fill-opacity:1;stroke:#000000;stroke-width:1px;stroke-linecap:butt;stroke-linejoin:miter;stroke-opacity:1" />
  <path
     d="m 79.4868,91.044033 c -1.408022,-0.683547 -2.542501,-1.14826 -4.224066,-2.050641 -4.743756,7.221173 -6.040876,9.245038 -11.277009,13.128988 0.0811,2.84908 -0.603713,5.4246 -1.890322,7.89072 0.427591,-0.014 0.855181,-0.028 1.282772,-0.042 C 70.85094,105.37092 74.744332,99.714248 79.4868,91.044033 z"
     id="path3763"
     style="fill:#000000;fill-opacity:1;stroke:#000000;stroke-width:1px;stroke-linecap:butt;stroke-linejoin:miter;stroke-opacity:1" />
  <path
     d="m 29.791398,80.616419 c -3.464306,4.427146 -5.46553,7.798568 -7.604569,13.48831 3.474099,5.373499 7.2855,9.735091 11.940155,13.084781 5.520498,-1.41932 10.703694,-3.34459 15.549589,-6.78773 C 49.744033,94.934845 49.136882,88.92082 47.349179,83.453879 41.31702,81.83066 35.600805,81.281835 29.791398,80.616419 z"
     id="path3765"
     style="fill:#000000;fill-opacity:1;stroke:#000000;stroke-width:1px;stroke-linecap:butt;stroke-linejoin:miter;stroke-opacity:1" />
  <path
     d="m 15.546813,49.362073 c 4.75894,-2.633683 9.572588,-5.10324 14.60507,-7.244546 2.50376,2.768494 3.91335,4.989903 6.03415,8.141357 -4.157847,4.252163 -8.151569,7.957242 -11.981165,12.75649 -4.060292,-0.449798 -7.737624,-0.571345 -12.509126,-0.03639 0.681897,-5.414307 1.910879,-9.077941 3.851071,-13.616911 z"
     id="path3767"
     style="fill:#000000;fill-opacity:1;stroke:#000000;stroke-width:1px;stroke-linecap:butt;stroke-linejoin:miter;stroke-opacity:1" />
  <path
     d="m 29.038311,113.66391 c 2.504703,0.46347 3.98387,0.48744 5.609542,0.0719 2.318905,1.25939 4.002357,1.96606 5.856286,2.4048 -5.846324,-0.41897 -8.042809,-1.31886 -11.465828,-2.47669 z"
     id="path3757-4"
     style="fill:#000000;fill-opacity:1;stroke:#000000;stroke-width:1px;stroke-linecap:butt;stroke-linejoin:miter;stroke-opacity:1" />
  <rect
     width="85"
     height="34"
     ry="7.8461533"
     x="0"
     y="0.50000048"
     id="rect2990"
     style="fill:#ffffff;fill-opacity:1;fill-rule:nonzero;stroke:none" />
</svg>
