<?xml version="1.0" encoding="UTF-8" standalone="no"?>
<!-- Created with Inkscape (http://www.inkscape.org/) -->

<svg
   xmlns:dc="http://purl.org/dc/elements/1.1/"
   xmlns:cc="http://creativecommons.org/ns#"
   xmlns:rdf="http://www.w3.org/1999/02/22-rdf-syntax-ns#"
   xmlns:svg="http://www.w3.org/2000/svg"
   xmlns="http://www.w3.org/2000/svg"
   version="1.1"
   width="85"
   height="85"
   id="svg2">
  <metadata
     id="metadata13">
    <rdf:RDF>
      <cc:Work
         rdf:about="">
        <dc:format>image/svg+xml</dc:format>
        <dc:type
           rdf:resource="http://purl.org/dc/dcmitype/StillImage" />
        <dc:title></dc:title>
      </cc:Work>
    </rdf:RDF>
  </metadata>
  <defs
     id="defs11" />
  <g
     id="g3782">
    <path
       d="m 82.869133,42.499984 a 40.369969,40.369969 0 1 1 -0.0012,-0.314791"
       id="path2991"
       style="fill:#fa9e0e;fill-opacity:1;stroke:#86661a;stroke-width:2.5;stroke-linecap:round;stroke-linejoin:miter;stroke-miterlimit:4;stroke-opacity:1;stroke-dasharray:none" />
    <path
       d="m 19.276207,74.155389 c 0,0 5.788655,-29.763379 20.378379,-45.675676 11.627179,-12.681194 31.27027,-14.405406 31.27027,-14.405406"
       id="path3761"
       style="fill:none;stroke:#b08a2e;stroke-width:2.5;stroke-linecap:round;stroke-linejoin:miter;stroke-miterlimit:4;stroke-opacity:1;stroke-dasharray:none" />
    <path
       d="m 14.532968,13.195929 c 0,0 29.763375,5.788655 45.675673,20.378378 12.681194,11.62718 14.405406,31.270271 14.405406,31.270271"
       id="path3761-5"
       style="fill:none;stroke:#b08a2e;stroke-width:2.5;stroke-linecap:round;stroke-linejoin:miter;stroke-miterlimit:4;stroke-opacity:1;stroke-dasharray:none" />
    <path
       d="m 56.870802,79.77701 c 0,0 -10.302839,-37.134079 2.108108,-46.378378 6.58349,-4.903715 23.891892,5.972973 23.891892,5.972973"
       id="path3781"
       style="fill:none;stroke:#b08a2e;stroke-width:2.5;stroke-linecap:round;stroke-linejoin:miter;stroke-miterlimit:4;stroke-opacity:1;stroke-dasharray:none" />
    <path
       d="m 5.573505,31.993226 c 0,0 22.475356,-4.757984 27.405405,-13.702702 C 35.251506,14.167292 31.573505,4.23647 31.573505,4.23647"
       id="path3783"
       style="fill:none;stroke:#b08a2e;stroke-width:2.5;stroke-linecap:round;stroke-linejoin:miter;stroke-miterlimit:4;stroke-opacity:1;stroke-dasharray:none" />
  </g>
</svg>
