<?xml version="1.0" encoding="UTF-8" standalone="no"?>
<!-- Created with Inkscape (http://www.inkscape.org/) -->

<svg
   xmlns:dc="http://purl.org/dc/elements/1.1/"
   xmlns:cc="http://creativecommons.org/ns#"
   xmlns:rdf="http://www.w3.org/1999/02/22-rdf-syntax-ns#"
   xmlns:svg="http://www.w3.org/2000/svg"
   xmlns="http://www.w3.org/2000/svg"
   version="1.1"
   width="85"
   height="85"
   id="svg2987">
  <metadata
     id="metadata2993">
    <rdf:RDF>
      <cc:Work
         rdf:about="">
        <dc:format>image/svg+xml</dc:format>
        <dc:type
           rdf:resource="http://purl.org/dc/dcmitype/StillImage" />
        <dc:title></dc:title>
      </cc:Work>
    </rdf:RDF>
  </metadata>
  <defs
     id="defs2991" />
  <path
     d="m 80.452924,53.572794 a 39.535206,39.53499 0 1 1 0.08822,-0.306985"
     id="path3047-1"
     style="fill:#ffffff;fill-opacity:1;stroke:#000000;stroke-width:1;stroke-linecap:butt;stroke-linejoin:miter;stroke-miterlimit:4;stroke-opacity:1;stroke-dasharray:none" />
  <g
     transform="translate(-2.2507039e-4,2.4371096e-5)"
     id="g3849">
    <path
       d="m 48.28877,62.219251 c 0,0 -1.582829,-3.361509 -1.44385,-5.13369 0.17024,-2.170797 2.727273,-5.935828 2.727273,-5.935828 0,0 -9.567817,-6.020918 -14.278075,-9.144385 C 29.780704,38.349292 24.133542,34.861063 18.930481,30.775401 15.713605,28.249375 9.7860963,22.593583 9.7860963,22.593583 c 0,0 -4.9217576,8.009501 -5.9358289,12.513369 -1.010186,4.486612 -0.7494874,9.259344 0,13.796791 0.4878049,2.953203 1.5346133,5.832745 2.8877005,8.502674 1.7704758,3.493525 6.7379681,9.625669 6.7379681,9.625669 0,0 4.531513,1.587425 6.898396,1.764705 4.234344,0.317153 8.527747,-0.366618 12.673796,-1.283422 C 38.299266,66.3522 48.28877,62.219251 48.28877,62.219251 z"
       id="path3049"
       style="fill:#ff4141;fill-opacity:1;stroke:none" />
    <path
       d="m 60.962567,45.534759 c 0,0 3.080573,0.959965 4.331551,1.925134 1.084412,0.836659 2.566845,3.208556 2.566845,3.208556 0,0 5.079694,-3.898145 7.219251,-6.256684 2.422531,-2.670474 6.256684,-8.82353 6.256684,-8.82353 0,0 -2.666481,-10.98466 -5.775401,-15.561497 C 72.731711,15.860832 68.514642,12.724107 64.331551,9.9197861 60.437677,7.3093547 51.657754,3.8235294 51.657754,3.8235294 L 48.770053,3.5026738 c 0,0 4.486173,5.9646111 6.096257,9.3048132 2.151476,4.463347 3.571867,9.282076 4.652407,14.117647 0.963363,4.31119 1.401257,8.742234 1.604278,13.15508 0.0836,1.817046 -0.160428,5.454545 -0.160428,5.454545 z"
       id="path3819"
       style="fill:#4146ff;fill-opacity:1;stroke:none" />
    <path
       d="m 57.433155,66.229947 c 0,0 3.483786,-0.954874 4.973262,-1.925134 1.710925,-1.114514 4.331551,-4.331551 4.331551,-4.331551 0,0 3.05905,1.997341 4.652406,2.887701 1.043842,0.583294 3.208556,1.604278 3.208556,1.604278 0,0 -3.884278,6.235701 -6.57754,8.663101 -2.602383,2.345492 -5.739761,4.132079 -8.983957,5.454546 -2.186166,0.891171 -6.898396,1.604278 -6.898396,1.604278 0,0 2.019306,-4.453916 2.887701,-6.737968 0.901453,-2.371002 2.406417,-7.219251 2.406417,-7.219251 z"
       id="path3821"
       style="fill:#ffd941;fill-opacity:1;stroke:none" />
    <path
       d="m 78.930895,63.569678 c -3.442202,10.09089 -11.713724,18.909646 -22.483577,23.972573 -10.769853,5.062926 -23.905344,6.30801 -35.703,3.385506 C 8.9466619,88.005253 -1.3682578,80.951198 -7.29828,71.752335 -13.228302,62.553472 -14.701965,51.322298 -11.307824,41.220708 -7.9136829,31.119117 0.30674365,22.270677 11.042082,17.168033 21.77742,12.06539 34.897279,10.771426 46.709045,13.651939 c 11.811765,2.880513 22.170272,9.900243 28.154197,19.081122 5.983925,9.180879 7.519314,20.410098 4.172543,30.524445 z"
       transform="matrix(0.84108375,0,0,0.98338297,14.06561,-8.9404119)"
       id="path3047"
       style="fill:none;stroke:#000000;stroke-width:3.29868078;stroke-linecap:butt;stroke-linejoin:miter;stroke-miterlimit:4;stroke-opacity:1;stroke-dasharray:none" />
  </g>
</svg>
